<?xml version="1.0" encoding="UTF-8"?>
<svg version="1.1" xmlns="http://www.w3.org/2000/svg" width="982" height="983">
<path d="M0 0 C0.98475871 -0.00205263 1.96951742 -0.00410527 2.9841173 -0.0062201 C6.26801838 -0.01185281 9.55187702 -0.01043749 12.83578205 -0.00901413 C15.22055573 -0.01159992 17.60532898 -0.01461367 19.99010164 -0.01801753 C25.84680907 -0.02522309 31.70350805 -0.02778895 37.56021888 -0.02834659 C44.5800144 -0.02926344 51.59980159 -0.03594056 58.6195935 -0.04269341 C75.5840273 -0.05872387 92.54846016 -0.06465363 109.51290017 -0.06944216 C117.54594646 -0.07178138 125.57899204 -0.07538442 133.61203778 -0.07913754 C161.13576431 -0.09197133 188.65949045 -0.10268994 216.18321991 -0.10614014 C217.90977618 -0.10636177 219.63633244 -0.10658355 221.36288871 -0.10680549 C223.09350458 -0.10702613 224.82412045 -0.10724661 226.55473632 -0.10746694 C230.02637335 -0.10790948 233.49801038 -0.10835659 236.96964741 -0.10880661 C237.8304062 -0.108916 238.691165 -0.10902539 239.57800739 -0.1091381 C267.46780061 -0.11276611 295.35756779 -0.12867738 323.24735104 -0.15199697 C352.76676021 -0.1766338 382.2861545 -0.19031479 411.80557424 -0.19150805 C415.05076429 -0.19167949 418.29595433 -0.19189492 421.54114437 -0.19214249 C422.34014199 -0.19219826 423.13913962 -0.19225402 423.96234929 -0.19231148 C436.78034557 -0.19345866 449.59831498 -0.20445232 462.41630221 -0.21902954 C475.31905406 -0.23344855 488.22177174 -0.23660121 501.12452944 -0.22858956 C508.10465369 -0.22454598 515.08469616 -0.22514545 522.06480885 -0.23964691 C528.4699917 -0.25246657 534.8750181 -0.2511181 541.280201 -0.2390562 C543.58243891 -0.23711307 545.88468822 -0.24011257 548.18691017 -0.24890056 C567.72539819 -0.31868737 587.27677203 0.98393536 606.28043842 5.81892776 C607.30564594 6.07456497 608.33085346 6.33020218 609.38712788 6.59358597 C633.32497558 12.77757604 656.45519786 22.77049796 676.65543842 37.13142776 C677.29674702 37.58630569 677.93805561 38.04118362 678.5987978 38.50984573 C687.86362708 45.14372947 696.46879913 52.19484173 704.65543842 60.13142776 C705.21473042 60.66493851 705.77402241 61.19844925 706.35026264 61.74812698 C741.13388012 94.99646755 762.96702051 139.57857656 769.65543842 187.13142776 C769.82496641 188.29342967 769.99449439 189.45543157 770.16915959 190.65264565 C770.77360765 195.54239734 770.7975685 200.38554447 770.7896595 205.30707836 C770.79201173 206.3100248 770.79436396 207.31297124 770.79678747 208.34630999 C770.80344928 211.71015394 770.8030201 215.07395901 770.80260944 218.43780899 C770.80590984 220.87290333 770.80963578 223.30799712 770.81375092 225.74309021 C770.82271 231.73594146 770.82699544 237.72878026 770.82926989 243.72163645 C770.83223755 250.90201099 770.84093843 258.08237578 770.84968417 265.26274519 C770.8705097 282.61984796 770.88099656 299.97695242 770.88981378 317.33406478 C770.89402418 325.55209904 770.89924573 333.77013257 770.90449831 341.98816621 C770.92238951 370.14076629 770.93738254 398.29336658 770.9448185 426.44597149 C770.94529325 428.21286386 770.94576914 429.97975624 770.94624616 431.74664861 C770.94660072 433.06093334 770.94660072 433.06093334 770.94696245 434.40176927 C770.9481636 438.84070817 770.94937907 443.27964707 770.95060444 447.71858597 C770.95084459 448.59949562 770.95108474 449.48040527 770.95133217 450.38800915 C770.95921748 478.92139321 770.98263292 507.45473559 771.01516038 535.98810146 C771.04951702 566.18141436 771.06917517 596.3747029 771.07246274 626.56803566 C771.07288025 629.88771539 771.0733598 633.2073951 771.07388592 636.52707481 C771.07400911 637.34442547 771.0741323 638.16177613 771.07425923 639.00389499 C771.07658431 652.11662576 771.09220577 665.22930789 771.11272776 678.34202137 C771.13306064 691.54425768 771.13842803 704.74643603 771.12895713 717.9486851 C771.1237706 725.77533541 771.12948343 733.60179169 771.1514918 741.42841378 C771.16673967 747.29866932 771.16065843 753.16878546 771.14682128 759.0390482 C771.14446032 761.39455788 771.14868891 763.75008677 771.16064993 766.10556727 C771.43193898 823.12003057 750.01312409 875.99471799 710.65543842 917.13142776 C710.13642963 917.68298538 709.61742085 918.234543 709.08268452 918.80281448 C700.05886021 928.36046526 690.36917888 936.52274117 679.65543842 944.13142776 C679.07890522 944.54199417 678.50237202 944.95256058 677.90836811 945.37556839 C643.70109883 969.35129026 601.12819138 983.3455529 559.31087685 983.26285553 C558.32611814 983.26490816 557.34135943 983.2669608 556.32675955 983.26907563 C553.04285847 983.27470834 549.75899982 983.27329302 546.4750948 983.27186966 C544.09032111 983.27445545 541.70554786 983.2774692 539.32077521 983.28087306 C533.46406778 983.28807862 527.6073688 983.29064448 521.75065797 983.29120212 C514.73086244 983.29211897 507.71107526 983.29879609 500.69128334 983.30554894 C483.72684955 983.3215794 466.76241669 983.32750916 449.79797668 983.33229769 C441.76493039 983.33463691 433.73188481 983.33823995 425.69883907 983.34199307 C398.17511254 983.35482686 370.6513864 983.36554547 343.12765694 983.36899567 C341.40110067 983.3692173 339.6745444 983.36943908 337.94798813 983.36966102 C336.21737227 983.36988166 334.4867564 983.37010214 332.75614053 983.37032247 C329.2845035 983.37076501 325.81286647 983.37121212 322.34122944 983.37166214 C321.48047064 983.37177153 320.61971185 983.37188092 319.73286945 983.37199363 C291.84307624 983.37562164 263.95330906 983.39153291 236.0635258 983.4148525 C206.54411664 983.43948933 177.02472235 983.45317032 147.50530261 983.45436358 C144.26011256 983.45453502 141.01492252 983.45475045 137.76973248 983.45499802 C136.57123604 983.45508167 136.57123604 983.45508167 135.34852756 983.45516701 C122.53053128 983.45631419 109.71256187 983.46730785 96.89457464 983.48188507 C83.99182279 983.49630408 71.08910511 983.49945674 58.1863474 983.49144509 C51.20622315 983.48740151 44.22618069 983.48800098 37.246068 983.50250244 C30.84088514 983.5153221 24.43585874 983.51397363 18.03067585 983.50191173 C15.72843794 983.4999686 13.42618863 983.5029681 11.12396667 983.51175609 C-8.41452135 983.5815429 -27.96589518 982.27892017 -46.96956158 977.44392776 C-47.9947691 977.18829056 -49.01997662 976.93265335 -50.07625103 976.66926956 C-74.01409873 970.48527949 -97.14432101 960.49235757 -117.34456158 946.13142776 C-117.98587017 945.67654984 -118.62717876 945.22167191 -119.28792095 944.7530098 C-128.55275023 938.11912605 -137.15792229 931.0680138 -145.34456158 923.13142776 C-145.90385357 922.59791702 -146.46314556 922.06440628 -147.0393858 921.51472855 C-181.82300327 888.26638798 -203.65614366 843.68427897 -210.34456158 796.13142776 C-210.51408956 794.96942586 -210.68361755 793.80742396 -210.85828274 792.61020988 C-211.4627308 787.72045819 -211.48669165 782.87731106 -211.47878265 777.95577717 C-211.48113488 776.95283073 -211.48348711 775.94988429 -211.48591062 774.91654554 C-211.49257243 771.55270159 -211.49214325 768.18889652 -211.4917326 764.82504654 C-211.495033 762.3899522 -211.49875894 759.95485841 -211.50287408 757.51976532 C-211.51183316 751.52691407 -211.5161186 745.53407527 -211.51839304 739.54121908 C-211.5213607 732.36084454 -211.53006158 725.18047975 -211.53880732 718.00011034 C-211.55963285 700.64300757 -211.57011971 683.28590311 -211.57893693 665.92879075 C-211.58314733 657.71075649 -211.58836889 649.49272296 -211.59362146 641.27468932 C-211.61151266 613.12208924 -211.62650569 584.96948895 -211.63394165 556.81688404 C-211.6344164 555.04999167 -211.63489229 553.28309929 -211.63536931 551.51620692 C-211.63560569 550.6400171 -211.63584206 549.76382728 -211.6360856 548.86108626 C-211.63728676 544.42214736 -211.63850222 539.98320846 -211.63972759 535.54426956 C-211.63996774 534.66335991 -211.64020789 533.78245026 -211.64045532 532.87484638 C-211.64834063 504.34146232 -211.67175608 475.80811994 -211.70428354 447.27475407 C-211.73864018 417.08144117 -211.75829832 386.88815263 -211.76158589 356.69481987 C-211.7620034 353.37514014 -211.76248296 350.05546043 -211.76300907 346.73578072 C-211.76313226 345.91843006 -211.76325545 345.1010794 -211.76338238 344.25896054 C-211.76570746 331.14622977 -211.78132892 318.03354764 -211.80185092 304.92083416 C-211.8221838 291.71859785 -211.82755118 278.5164195 -211.81808028 265.31417043 C-211.81289375 257.48752012 -211.81860658 249.66106384 -211.84061496 241.83444175 C-211.85586283 235.96418621 -211.84978159 230.09407007 -211.83594444 224.22380733 C-211.83358348 221.86829764 -211.83781206 219.51276876 -211.84977309 217.15728826 C-212.12106214 160.14282496 -190.70224724 107.26813754 -151.34456158 66.13142776 C-150.82555279 65.57987015 -150.306544 65.02831253 -149.77180767 64.46004105 C-140.74798337 54.90239027 -131.05830203 46.74011436 -120.34456158 39.13142776 C-119.76802837 38.72086136 -119.19149517 38.31029495 -118.59749126 37.88728714 C-84.39022199 13.91156527 -41.81731453 -0.08269737 0 0 Z " fill="#053345" transform="translate(211.34456157684326,-0.13142776489257813)"/>
<path d="M0 0 C2.25682361 0.00534389 4.51344613 0.00001992 6.77026367 -0.00634766 C24.03444625 -0.01732684 41.08499298 1.03698959 58.20581055 3.25537109 C59.45424744 3.41527023 59.45424744 3.41527023 60.72790527 3.57839966 C83.01459635 6.47160255 104.91648316 11.04836999 126.20141602 18.36669922 C128.60099676 19.17955265 131.01213218 19.94696201 133.4284668 20.70849609 C188.4094473 38.20338804 239.36011062 68.02693202 281.9440918 106.86474609 C283.35362776 108.13617823 284.76989643 109.40054357 286.20898438 110.63842773 C291.54214761 115.2299758 296.55581834 120.08012448 301.51831055 125.06787109 C302.66396484 126.20772461 302.66396484 126.20772461 303.83276367 127.37060547 C308.58143991 132.12740605 313.08822982 137.02324257 317.45581055 142.13037109 C318.44075287 143.25991846 319.42640079 144.38885105 320.4128418 145.51708984 C325.46067049 151.33442581 330.43322334 157.20928539 335.20581055 163.25537109 C336.43557617 164.80611328 336.43557617 164.80611328 337.69018555 166.38818359 C339.45581055 169.13037109 339.45581055 169.13037109 339.45581055 173.13037109 C338.80209473 173.48228516 338.14837891 173.83419922 337.47485352 174.19677734 C321.29899438 182.90324646 321.29899438 182.90324646 305.29956055 191.92724609 C300.06746831 194.94088513 294.78891933 197.87233189 289.51831055 200.81787109 C281.39990947 205.35563829 273.29523763 209.91617689 265.20581055 214.50537109 C255.10439663 220.23121635 244.94254806 225.84398844 234.77075195 231.44335938 C220.5359332 239.07872035 220.5359332 239.07872035 206.63452148 247.28466797 C202.04491311 250.13037109 202.04491311 250.13037109 199.2487793 250.13037109 C196.86454589 248.80060257 195.51966742 247.23342033 193.76831055 245.13037109 C182.78006311 232.53364664 170.95985702 220.99423013 157.45581055 211.13037109 C156.30476038 210.27230958 155.15371877 209.41423658 154.00268555 208.55615234 C145.8115044 202.51800281 137.2977695 197.15941589 128.45581055 192.13037109 C127.82400879 191.76588867 127.19220703 191.40140625 126.54125977 191.02587891 C103.94143757 178.09049191 78.62334055 169.05910397 53.14331055 163.81787109 C52.07149536 163.59671631 52.07149536 163.59671631 50.97802734 163.37109375 C34.5294463 160.25421279 18.08874801 159.72518476 1.39331055 159.75537109 C-0.22951843 159.75568832 -0.22951843 159.75568832 -1.88513184 159.75601196 C-17.82582599 159.78711044 -32.96951179 160.48949907 -48.54418945 164.13037109 C-50.38103021 164.52157136 -52.21827615 164.91087365 -54.0559082 165.29833984 C-92.57812165 173.68918084 -127.93781961 191.43392689 -158.54418945 216.13037109 C-159.55223633 216.93345703 -160.5602832 217.73654297 -161.59887695 218.56396484 C-175.60306969 229.92904955 -188.60543433 242.84231658 -199.27319336 257.40185547 C-200.60824555 259.21748542 -201.97056018 261.01026441 -203.3371582 262.80224609 C-209.71253335 271.23143337 -215.34613831 279.93292214 -220.54418945 289.13037109 C-220.90722168 289.76072266 -221.27025391 290.39107422 -221.64428711 291.04052734 C-231.46554109 308.19631286 -239.01603808 326.89476932 -243.9909668 346.02734375 C-244.58140506 348.27184295 -245.21259779 350.50281648 -245.8449707 352.73583984 C-251.5942881 373.56447028 -252.81611092 394.13316501 -252.85668945 415.63037109 C-252.86220322 417.03633545 -252.86220322 417.03633545 -252.86782837 418.47070312 C-252.89956012 433.97616101 -251.87289851 449.04994994 -248.66918945 464.25537109 C-248.49629395 465.09245605 -248.32339844 465.92954102 -248.14526367 466.79199219 C-246.55909133 474.32307521 -244.72965788 481.74765796 -242.54418945 489.13037109 C-242.35163574 489.78585937 -242.15908203 490.44134766 -241.96069336 491.11669922 C-231.73767177 525.32855576 -214.06938131 556.39380384 -190.54418945 583.13037109 C-189.89708008 583.88833984 -189.2499707 584.64630859 -188.58325195 585.42724609 C-188.01348633 586.09240234 -187.4437207 586.75755859 -186.85668945 587.44287109 C-186.35924225 588.02749115 -185.86179504 588.61211121 -185.34927368 589.21444702 C-183.60682714 591.17307725 -183.60682714 591.17307725 -181.52645874 592.64419556 C-177.17062901 596.09643753 -175.13425301 599.0545458 -174.46163177 604.66233921 C-174.17088302 608.47075371 -174.05201667 612.27371142 -173.95825195 616.09130859 C-173.88875852 617.78235107 -173.81586832 619.47325693 -173.73980713 621.16401672 C-173.54602347 625.67693362 -173.39858511 630.19026149 -173.26003265 634.70516586 C-173.10798299 639.39203588 -172.91220462 644.0770671 -172.72045898 648.76245117 C-172.38642964 657.06401987 -172.08626771 665.36633501 -171.80332375 673.66978741 C-171.54491475 681.21662068 -171.24880025 688.76140786 -170.93481445 696.30615234 C-170.84531271 698.46630591 -170.75587327 700.62646205 -170.66650391 702.78662109 C-170.62482086 703.79370117 -170.58313782 704.80078125 -170.54019165 705.83837891 C-170.41996268 708.7988315 -170.30548638 711.75944502 -170.19335938 714.72021484 C-169.69207383 727.95688368 -169.05965397 741.18282061 -168.35327148 754.41003418 C-167.57601728 768.97901396 -166.99301162 783.54729948 -166.54418945 798.13037109 C-163.76185515 798.13037109 -163.11924159 797.00248049 -161.13012695 795.09521484 C-160.45079102 794.45003906 -159.77145508 793.80486328 -159.0715332 793.14013672 C-158.36125977 792.45628906 -157.65098633 791.77244141 -156.91918945 791.06787109 C-152.17319364 786.5311265 -147.39033597 782.07653137 -142.4284668 777.77612305 C-139.62264482 775.32548222 -136.89548051 772.79373045 -134.16918945 770.25537109 C-129.50585722 765.93172949 -124.80722769 761.65218657 -120.0715332 757.40771484 C-117.21336742 754.83227334 -114.37708684 752.23351346 -111.54418945 749.63037109 C-107.09086328 745.53867902 -102.60759057 741.48214133 -98.10668945 737.44287109 C-95.23818536 734.85422106 -92.38942295 732.24451964 -89.54418945 729.63037109 C-85.8948942 726.27746531 -82.23249377 722.94038779 -78.54418945 719.63037109 C-72.83757251 714.50717825 -67.19103591 709.31917171 -61.54418945 704.13037109 C-55.1027124 698.21139661 -48.64853847 692.30898536 -42.1340332 686.47021484 C-40.19944775 684.7223767 -38.27591057 682.96550907 -36.3605957 681.19677734 C-35.81983398 680.69791016 -35.27907227 680.19904297 -34.72192383 679.68505859 C-33.66818232 678.71159002 -32.61602147 677.73640684 -31.56567383 676.75927734 C-26.47755186 672.06044793 -23.56017647 670.85865129 -16.73950195 671.04052734 C-15.12175508 671.06379604 -13.50399716 671.08630643 -11.88623047 671.1081543 C-11.03537872 671.1227066 -10.18452698 671.13725891 -9.30789185 671.1522522 C62.57147452 672.25872807 129.30695825 648.55563382 181.38793945 598.26464844 C189.60723283 590.27957857 197.49477617 582.25706061 204.45581055 573.13037109 C207.99231564 573.69274286 210.57090046 574.55751353 213.6159668 576.43115234 C214.3985083 576.90713867 215.1810498 577.383125 215.98730469 577.87353516 C216.82253662 578.39141602 217.65776855 578.90929687 218.51831055 579.44287109 C220.33071394 580.54849822 222.14321656 581.6539627 223.95581055 582.75927734 C224.87620117 583.32404785 225.7965918 583.88881836 226.74487305 584.47070312 C230.82080683 586.96603794 234.9187303 589.42414622 239.01831055 591.88037109 C239.82768066 592.36634766 240.63705078 592.85232422 241.47094727 593.35302734 C249.0861104 597.92124672 256.72832086 602.44349968 264.37121582 606.96511841 C273.7310474 612.50340906 283.06384163 618.08565862 292.38330078 623.69165039 C298.22638579 627.20325128 304.0840411 630.68789059 309.96166992 634.14135742 C313.55003221 636.25191464 317.13052458 638.37555631 320.70922852 640.50244141 C322.61427369 641.63158285 324.52237384 642.75557976 326.43286133 643.87548828 C329.38763744 645.61146096 332.32894613 647.36845962 335.26831055 649.13037109 C336.17677734 649.65840332 337.08524414 650.18643555 338.02124023 650.73046875 C338.85171875 651.23368652 339.68219727 651.7369043 340.5378418 652.25537109 C341.27236572 652.69107422 342.00688965 653.12677734 342.76367188 653.57568359 C344.45581055 655.13037109 344.45581055 655.13037109 345.35253906 657.57128906 C345.47747475 660.66721323 344.93791542 661.55984872 343.02612305 663.95068359 C342.48246094 664.64540771 341.93879883 665.34013184 341.37866211 666.0559082 C340.78537109 666.78173096 340.19208008 667.50755371 339.58081055 668.25537109 C338.98236328 669.01019775 338.38391602 669.76502441 337.76733398 670.54272461 C336.01097406 672.75043038 334.23538214 674.94136345 332.45581055 677.13037109 C331.60314492 678.19850184 330.75143529 679.26739718 329.90112305 680.33740234 C325.69916146 685.56368553 321.31613812 690.59924649 316.79174805 695.54833984 C315.52485691 696.94869945 314.26397147 698.35507517 313.0378418 699.79125977 C308.04785614 705.62067524 302.70098022 711.07134832 297.27807617 716.4934082 C295.71720728 718.05645843 294.16453167 719.62734475 292.61206055 721.19873047 C286.21680168 727.62937962 279.55820891 733.47583061 272.45581055 739.13037109 C271.35395997 740.06512421 270.25761747 741.00647239 269.1706543 741.95849609 C231.37248867 774.91892182 185.39768474 798.85474129 138.25683594 815.1472168 C135.48729593 816.11931979 132.74014117 817.14135718 129.9909668 818.16943359 C124.16589059 820.29335398 118.25755135 821.97403402 112.26831055 823.56787109 C110.5797998 824.01791504 110.5797998 824.01791504 108.85717773 824.47705078 C74.57475143 833.4624028 40.11482091 837.55187296 4.70581055 837.38037109 C2.99084885 837.37571838 2.99084885 837.37571838 1.24124146 837.37097168 C-15.09314799 837.31901361 -31.31405064 837.14734732 -47.54418945 835.13037109 C-48.58478516 835.00678223 -49.62538086 834.88319336 -50.69750977 834.75585938 C-66.95621651 832.76632614 -82.81236932 829.46694582 -98.7355957 825.71630859 C-100.48573975 825.31520874 -100.48573975 825.31520874 -102.27124023 824.90600586 C-104.34264154 824.41511805 -106.40571861 823.8862543 -108.45385742 823.3059082 C-113.79873737 821.86604928 -113.79873737 821.86604928 -118.79418945 824.02490234 C-119.74059766 824.96864461 -120.65671452 825.9435082 -121.54418945 826.94287109 C-122.56430181 827.98134023 -123.58514558 829.01909135 -124.60668945 830.05615234 C-125.10168945 830.57902832 -125.59668945 831.1019043 -126.10668945 831.640625 C-128.1489697 833.75713215 -130.33680452 835.68829685 -132.54418945 837.63037109 C-136.23249377 840.94038779 -139.8948942 844.27746531 -143.54418945 847.63037109 C-147.99754432 851.72203217 -152.480788 855.77860056 -156.98168945 859.81787109 C-159.85019354 862.40652113 -162.69895596 865.01622255 -165.54418945 867.63037109 C-169.99754432 871.72203217 -174.480788 875.77860056 -178.98168945 879.81787109 C-181.85019479 882.40652226 -184.69882744 885.01636137 -187.54418945 887.63037109 C-191.34655081 891.12079381 -195.15450209 894.60463617 -198.98168945 898.06787109 C-199.74352539 898.75751953 -200.50536133 899.44716797 -201.2902832 900.15771484 C-208.11448648 906.13037109 -208.11448648 906.13037109 -211.54418945 906.13037109 C-212.29372399 901.30172117 -212.75755349 896.55980313 -213.0090332 891.67333984 C-213.0465419 890.95412857 -213.0840506 890.2349173 -213.12269592 889.49391174 C-213.24598459 887.10206728 -213.36404573 884.70999942 -213.48168945 882.31787109 C-213.5451355 881.06242493 -213.5451355 881.06242493 -213.60986328 879.78161621 C-214.25777522 866.95380118 -214.80107079 854.12302906 -215.29248047 841.28833008 C-215.45694241 837.01756968 -215.63656262 832.74785627 -215.82910156 828.47827148 C-216.25639815 818.8371109 -216.58591895 809.24242077 -216.48168945 799.59130859 C-215.87157406 785.60390902 -215.87157406 785.60390902 -220.09057617 772.74023438 C-224.09877526 768.73203528 -228.81092709 766.56389404 -233.96704102 764.35888672 C-238.51111945 762.19274399 -242.3723987 759.1145394 -246.35668945 756.06787109 C-247.15042969 755.47828613 -247.94416992 754.88870117 -248.76196289 754.28125 C-255.608767 749.18096359 -262.13049184 743.76078667 -268.54418945 738.13037109 C-269.27637695 737.49744141 -270.00856445 736.86451172 -270.76293945 736.21240234 C-272.70184306 734.53124981 -274.62389329 732.8327404 -276.54418945 731.13037109 C-277.26058594 730.49808594 -277.97698242 729.86580078 -278.71508789 729.21435547 C-285.21694842 723.42601601 -291.44984517 717.40792489 -297.60668945 711.25537109 C-298.99984375 709.88058594 -298.99984375 709.88058594 -300.42114258 708.47802734 C-306.57173587 702.34038267 -312.12336956 695.91406596 -317.54418945 689.13037109 C-318.46761754 688.0405852 -319.39722585 686.9559546 -320.3371582 685.88037109 C-338.11334264 665.46530772 -352.49892354 642.77702236 -365.54418945 619.13037109 C-366.03532227 618.24671875 -366.52645508 617.36306641 -367.0324707 616.45263672 C-381.5014505 590.24431316 -391.98990796 562.75139569 -400.54418945 534.13037109 C-400.82230469 533.20353516 -401.10041992 532.27669922 -401.38696289 531.32177734 C-402.88229653 526.28362302 -404.25326358 521.22432909 -405.54418945 516.13037109 C-405.87676758 514.87095703 -406.2093457 513.61154297 -406.55200195 512.31396484 C-409.22789919 501.63785454 -410.70901609 490.76737519 -412.23168945 479.88037109 C-412.34037354 479.10937073 -412.44905762 478.33837036 -412.56103516 477.54400635 C-415.24097555 458.37835657 -415.78241571 439.53713571 -415.79418945 420.19287109 C-415.79552887 418.89890411 -415.79686829 417.60493713 -415.79824829 416.27175903 C-415.77682461 320.94302776 -383.43253018 227.26600545 -321.95043945 153.82470703 C-320.00387405 151.47936607 -318.12513079 149.08118914 -316.23168945 146.69287109 C-304.73081401 132.65503784 -291.67678731 118.83032633 -277.8215332 107.07177734 C-275.99895344 105.51805155 -274.20744406 103.94207157 -272.4230957 102.34521484 C-199.05688634 37.08341233 -100.32597922 -0.06398354 0 0 Z " fill="#FDFEFE" transform="translate(494.544189453125,75.86962890625)"/>
<path d="M0 0 C1.04849121 0.00149048 2.09698242 0.00298096 3.17724609 0.0045166 C19.44260856 0.04596568 35.28553683 0.7719171 51.375 3.3125 C53.45700375 3.61737537 55.5390354 3.92206025 57.62109375 4.2265625 C70.40932015 6.16660312 82.93186789 8.7862283 95.375 12.3125 C96.43783203 12.6125293 97.50066406 12.91255859 98.59570312 13.22167969 C145.34123459 26.62100718 189.05232925 48.32277622 226.85205078 79.07763672 C228.27565743 80.23194939 229.71351319 81.36862644 231.15234375 82.50390625 C238.73471458 88.54976141 245.8113495 95.12724121 252.81591797 101.82666016 C254.13349893 103.08234411 255.47266169 104.31532372 256.81640625 105.54296875 C258.375 107.3125 258.375 107.3125 258.375 110.3125 C257.59600342 110.73958252 256.81700684 111.16666504 256.0144043 111.60668945 C253.02990653 113.24432793 250.04646267 114.88385582 247.0637207 116.52468872 C245.73269444 117.25651366 244.40131558 117.98769768 243.06958008 118.7182312 C236.45854162 122.34587795 229.86211202 125.9794978 223.39453125 129.859375 C222.5331958 130.37459717 221.67186035 130.88981934 220.78442383 131.4206543 C219.2153359 132.36776716 217.65349042 133.32701797 216.1003418 134.30004883 C211.12183043 137.30173875 211.12183043 137.30173875 207.6640625 137.3515625 C204.75958907 136.03314965 203.01061817 134.38193638 200.75 132.125 C173.95714278 106.60285756 138.69968253 89.08980209 104.375 76.3125 C103.42351074 75.95679932 102.47202148 75.60109863 101.49169922 75.23461914 C80.37650395 67.43686879 57.7693924 62.5042916 35.375 60.3125 C34.10172852 60.18439941 34.10172852 60.18439941 32.80273438 60.05371094 C-4.16780665 56.73706112 -41.69882628 59.03157179 -77.625 68.3125 C-78.66527344 68.58078613 -79.70554687 68.84907227 -80.77734375 69.12548828 C-95.56831685 73.02140821 -109.6676502 78.06892492 -123.625 84.3125 C-125.11966797 84.97958984 -125.11966797 84.97958984 -126.64453125 85.66015625 C-155.30140953 98.60080946 -181.22455071 115.31541789 -204.625 136.3125 C-205.14642578 136.7775293 -205.66785156 137.24255859 -206.20507812 137.72167969 C-216.2685299 146.72084901 -226.00095594 155.95146911 -234.40625 166.546875 C-235.84511132 168.34038524 -237.32280595 170.10367435 -238.84375 171.828125 C-268.88494521 206.07508753 -288.06780965 249.68430283 -299.625 293.3125 C-299.93993408 294.49803467 -299.93993408 294.49803467 -300.26123047 295.70751953 C-303.46259784 308.06722902 -304.93989655 320.60398243 -306.29956055 333.28149414 C-306.48176791 334.9784967 -306.66968701 336.6749936 -306.87850952 338.368927 C-307.50398955 343.56966328 -307.79694116 348.6854965 -307.828125 353.921875 C-307.83504868 354.71868683 -307.84197235 355.51549866 -307.84910583 356.3364563 C-307.86634756 358.91185472 -307.87270054 361.48704647 -307.875 364.0625 C-307.87633942 364.94633362 -307.87767883 365.83016724 -307.87905884 366.74078369 C-307.87381187 382.77803637 -306.84344056 398.41498251 -304.625 414.3125 C-304.50753418 415.18970703 -304.39006836 416.06691406 -304.26904297 416.97070312 C-300.31039038 445.89710195 -290.61582486 475.22835857 -277.625 501.3125 C-276.94848389 502.68196777 -276.94848389 502.68196777 -276.25830078 504.07910156 C-267.02453817 522.63418025 -256.70037414 540.19984785 -243.625 556.3125 C-242.46677734 557.75882813 -242.46677734 557.75882813 -241.28515625 559.234375 C-237.18363832 564.41633987 -237.18363832 564.41633987 -232.62182617 569.17895508 C-226.16508814 575.5084525 -225.37076535 580.65410945 -225.1875 589.5 C-225.13223145 590.73306885 -225.07696289 591.9661377 -225.02001953 593.23657227 C-224.91085343 595.74366745 -224.81727096 598.25149263 -224.73974609 600.75976562 C-224.63692725 603.94321217 -224.48480136 607.11726658 -224.30078125 610.296875 C-223.60302437 622.63804225 -223.5112758 634.95447053 -223.625 647.3125 C-234.88104224 647.3125 -253.19299076 623.87634762 -260.875 616.25 C-267.57429467 609.54514677 -273.85760176 602.83758151 -279.625 595.3125 C-280.54473704 594.17819161 -281.46819397 593.04689346 -282.39453125 591.91796875 C-316.33354619 550.44308021 -339.20214156 502.02998401 -352.625 450.3125 C-352.82963867 449.53503418 -353.03427734 448.75756836 -353.24511719 447.95654297 C-355.51649373 439.23770753 -357.21920961 430.43966356 -358.75 421.5625 C-358.90879639 420.65943115 -359.06759277 419.7563623 -359.23120117 418.82592773 C-362.13388686 401.24948643 -363.0023181 383.66317979 -362.9375 365.875 C-362.93634186 364.8806897 -362.93518372 363.88637939 -362.93399048 362.86193848 C-362.89501209 345.83740524 -361.9921649 329.18377772 -359.625 312.3125 C-359.50753418 311.44963379 -359.39006836 310.58676758 -359.26904297 309.69775391 C-358.54648184 304.53464974 -357.64069478 299.42531039 -356.625 294.3125 C-356.46306152 293.47332031 -356.30112305 292.63414062 -356.13427734 291.76953125 C-343.67872006 228.0081189 -313.70582804 169.78393966 -270.625 121.3125 C-270.16915527 120.79880859 -269.71331055 120.28511719 -269.24365234 119.75585938 C-259.6648576 109.01547635 -249.64687333 98.58228256 -238.625 89.3125 C-237.73167969 88.53003906 -236.83835937 87.74757813 -235.91796875 86.94140625 C-212.72064913 66.73051174 -186.3494012 49.60517953 -158.625 36.3125 C-157.8098291 35.9201416 -156.9946582 35.5277832 -156.15478516 35.12353516 C-124.76854102 20.13033408 -91.60631206 9.85535528 -57.3125 4.1875 C-56.36576416 4.02870361 -55.41902832 3.86990723 -54.44360352 3.70629883 C-36.33736745 0.8401189 -18.31005087 -0.06482078 0 0 Z " fill="#063345" transform="translate(496.625,125.6875)"/>
<path d="M0 0 C3.21793151 0.98148074 5.75559219 2.40753015 8.640625 4.14086914 C9.48270508 4.64299171 9.48270508 4.64299171 10.34179688 5.15525818 C12.13306734 6.22572144 13.91805682 7.30619581 15.703125 8.38696289 C16.8707044 9.08618116 18.03867042 9.78475426 19.20703125 10.48266602 C27.08035959 15.19586973 34.8974612 20.00021906 42.703125 24.82446289 C42.19000064 28.6669576 41.46008828 30.55873351 38.59765625 33.17211914 C37.95151367 33.77088867 37.30537109 34.3696582 36.63964844 34.98657227 C35.9387207 35.61370117 35.23779297 36.24083008 34.515625 36.88696289 C33.79020508 37.54889648 33.06478516 38.21083008 32.31738281 38.89282227 C30.12442743 40.88363104 27.91615969 42.8560241 25.703125 44.82446289 C24.80956299 45.62859619 24.80956299 45.62859619 23.89794922 46.44897461 C3.742774 64.53846569 -18.66383416 79.69652689 -42.296875 92.82446289 C-43.53848389 93.51523926 -43.53848389 93.51523926 -44.80517578 94.2199707 C-65.68460668 105.73492641 -87.62889969 114.49965283 -110.296875 121.82446289 C-111.13686035 122.09742188 -111.9768457 122.37038086 -112.84228516 122.65161133 C-123.89461234 126.18085257 -135.11126709 128.75522983 -146.484375 131.01196289 C-147.66322266 131.24995605 -148.84207031 131.48794922 -150.05664062 131.7331543 C-172.27509841 135.96510027 -194.39512721 137.36776558 -216.984375 137.26196289 C-218.87189484 137.26039185 -218.87189484 137.26039185 -220.79754639 137.25878906 C-239.89096935 137.22605176 -258.51356182 136.4067737 -277.296875 132.82446289 C-277.296875 128.82446289 -277.296875 128.82446289 -275.95507812 127.10449219 C-275.33568359 126.54157471 -274.71628906 125.97865723 -274.078125 125.39868164 C-273.39234375 124.76639648 -272.7065625 124.13411133 -272 123.48266602 C-271.27296875 122.83233398 -270.5459375 122.18200195 -269.796875 121.51196289 C-268.75273437 120.55386719 -268.75273437 120.55386719 -267.6875 119.57641602 C-263.57296514 115.81618833 -259.38283435 112.14554276 -255.18115234 108.48339844 C-252.36103334 106.00053906 -249.60776172 103.44866674 -246.859375 100.88696289 C-245.27425927 99.41033417 -243.68770973 97.93930807 -242.07421875 96.49365234 C-240.22024693 94.79937631 -240.22024693 94.79937631 -238.37890625 92.69238281 C-234.06554113 88.20179031 -231.01535982 86.31794202 -224.7265625 85.92993164 C-222.20819569 85.92255525 -219.68953569 85.95187552 -217.171875 86.01196289 C-214.39559846 86.00979242 -211.61983611 85.97645653 -208.84375 85.94555664 C-208.13634674 85.94121613 -207.42894348 85.93687561 -206.70010376 85.93240356 C-133.35124414 85.29757864 -59.25035381 53.76662017 -6.515625 3.11352539 C-2.90376349 -0.22191815 -2.90376349 -0.22191815 0 0 Z " fill="#063445" transform="translate(714.296875,715.175537109375)"/>
<path d="M0 0 C10.5137589 6.4348424 16.71938443 16.08002829 20.5859375 27.6796875 C21.51468669 42.52444921 20.16211201 54.18149365 10.7109375 66.2734375 C3.69000041 74.22361626 -7.36216865 80.21614706 -18.0390625 80.91796875 C-32.24318431 81.28360002 -42.57702685 78.44943934 -53.4140625 68.6796875 C-62.84429514 58.37921527 -66.32492119 47.2351487 -65.7265625 33.44140625 C-64.76056803 21.81324783 -59.52128844 12.19660422 -50.9765625 4.2421875 C-47.08130349 1.00276291 -43.13274136 -1.47665074 -38.4140625 -3.3203125 C-37.53492188 -3.67609375 -36.65578125 -4.031875 -35.75 -4.3984375 C-23.75034683 -7.71450091 -10.76751157 -5.88902736 0 0 Z " fill="#FDFDFD" transform="translate(517.4140625,455.3203125)"/>
<path d="M0 0 C9.96376384 6.65148559 16.06437903 15.78883331 19.7265625 27.1171875 C22.09335644 39.62100457 19.64433708 51.31205684 12.859375 61.921875 C6.3064282 71.00664215 -3.03078067 78.13956882 -14.296875 80.05078125 C-27.6323468 81.37213135 -38.6589684 80.0806156 -49.734375 72.0546875 C-57.77798471 65.2360679 -63.57636341 56.66650658 -65.859375 46.3046875 C-66.61977055 31.41848228 -65.82314075 20.12577658 -55.859375 8.3046875 C-41.13526898 -7.29357695 -18.65767763 -11.0620657 0 0 Z " fill="#FDFDFD" transform="translate(417.859375,455.6953125)"/>
<path d="M0 0 C8.20906762 6.69328543 15.16861387 15.43255883 16.6875 26.1875 C17.74076839 40.64954257 16.15053894 52.62156352 6.6875 64.1875 C-1.07333642 72.48356652 -11.21138198 77.64354004 -22.5703125 78.40625 C-36.41727373 78.76513452 -47.2603116 74.98332247 -57.5625 65.5625 C-66.57189292 56.0789285 -69.94274388 43.98931394 -69.625 31.234375 C-69.04123706 20.81420656 -63.70674375 12.15993372 -56.9375 4.5 C-40.33047595 -10.12999738 -18.76755854 -13.04792165 0 0 Z " fill="#FDFDFD" transform="translate(621.3125,457.8125)"/>
</svg>
