<?xml version="1.0" encoding="UTF-8"?>
<svg version="1.1" xmlns="http://www.w3.org/2000/svg" width="1894" height="1894">
<path d="M0 0 C1.45082846 -0.00165421 2.90165649 -0.00374255 4.35248378 -0.0062201 C8.3157246 -0.01173772 12.27894361 -0.01112344 16.24218702 -0.00944251 C20.5632288 -0.00870689 24.88426465 -0.01374492 29.20530385 -0.01801753 C37.76526356 -0.02557274 46.32521702 -0.02778933 54.88517972 -0.02834659 C65.14329368 -0.02926271 75.40140191 -0.03593767 85.6595134 -0.04269341 C110.45178783 -0.05873172 135.24406163 -0.0646546 160.03634033 -0.06944216 C171.77439081 -0.07178067 183.51244081 -0.07538364 195.25049092 -0.07913754 C235.46262478 -0.09197224 275.67475837 -0.10269061 315.88689423 -0.10614014 C318.40989775 -0.10636177 320.93290127 -0.10658355 323.45590479 -0.10680549 C325.98487185 -0.10702613 328.51383891 -0.10724661 331.04280597 -0.10746694 C336.11601945 -0.10790948 341.18923293 -0.1083566 346.2624464 -0.10880661 C347.52030271 -0.108916 348.77815901 -0.10902539 350.07413217 -0.1091381 C390.83094755 -0.11276615 431.58774512 -0.12867713 472.34455368 -0.15199697 C515.47475281 -0.17662949 558.60494177 -0.1903146 601.73514813 -0.19150805 C606.47597452 -0.1916795 611.21680091 -0.19189492 615.9576273 -0.19214249 C617.12487979 -0.19219826 618.29213228 -0.19225402 619.49475606 -0.19231148 C638.22733445 -0.19345906 656.95989446 -0.20445622 675.69246666 -0.21902954 C694.54666732 -0.23344304 713.4008446 -0.23660428 732.25504927 -0.22858956 C743.43489799 -0.22415582 754.61467089 -0.2279028 765.79450955 -0.24382807 C773.28830546 -0.25365992 780.78204891 -0.2523226 788.27584447 -0.24239184 C792.52868798 -0.23705814 796.78138712 -0.23609646 801.03421799 -0.24890056 C828.08418877 -0.32524884 854.88458137 1.11424048 881.64159679 5.38142776 C882.62464794 5.53483124 882.62464794 5.53483124 883.62755871 5.69133377 C976.37956904 20.22237244 1064.41936198 57.90103732 1158.46776867 131.70027542 C1160.22186528 133.20005872 1161.98555851 134.6879563 1163.75097179 136.17439651 C1169.79185433 141.27820714 1175.61300711 146.4461428 1181.13378429 152.11970901 C1183.06741325 154.0570999 1185.06366957 155.85092934 1187.14159679 157.63142776 C1193.6170654 163.20573772 1199.51667715 169.29518437 1205.07128429 175.77986526 C1207.26842675 178.27548745 1209.53049471 180.69904864 1211.80663586 183.12239456 C1217.87312614 189.58471381 1223.60364924 196.20671246 1229.14159679 203.13142776 C1230.1697918 204.38156944 1231.19986945 205.63016419 1232.23144054 206.87752151 C1238.81704062 214.86115485 1245.09610002 222.96787576 1250.99169445 231.4742012 C1252.11061948 233.0867836 1253.2411876 234.69126762 1254.37206554 236.29549026 C1271.72335479 261.0479489 1286.59842861 287.11874266 1300.14159679 314.13142776 C1300.57311047 314.99042679 1301.00462414 315.84942581 1301.44921398 316.73445511 C1317.93046765 349.81245351 1330.00582418 385.36004001 1339.14159679 421.13142776 C1339.39602551 422.11530472 1339.65045422 423.09918167 1339.91259289 424.11287308 C1347.24589528 452.86164488 1351.71605403 482.57524307 1354.14159679 512.13142776 C1354.22965297 513.17890991 1354.31770914 514.22639205 1354.40843368 515.30561608 C1355.46886831 530.23676382 1355.28893016 545.20104378 1355.28246707 560.160942 C1355.28172941 564.4182992 1355.28677415 568.67565045 1355.29104209 572.93300503 C1355.29858563 581.36010437 1355.30081329 589.78719736 1355.30137115 598.21429972 C1355.30228843 608.31595689 1355.30896677 618.41760826 1355.31571797 628.51926292 C1355.331744 652.93054349 1355.33767766 677.3418234 1355.34246672 701.75310828 C1355.34480636 713.31347085 1355.34840944 724.87383293 1355.35216209 736.43419511 C1355.36499542 776.04741805 1355.37571413 815.66064073 1355.3791647 855.2738657 C1355.37938632 857.75851429 1355.37960811 860.24316288 1355.37983005 862.72781147 C1355.38005068 865.21828352 1355.38027117 867.70875558 1355.3804915 870.19922763 C1355.38093403 875.19510098 1355.38138115 880.19097434 1355.38183117 885.18684769 C1355.38194056 886.42552494 1355.38204995 887.6642022 1355.38216266 888.94041513 C1355.38579057 929.07419044 1355.40170171 969.20794765 1355.42502153 1009.34171604 C1355.44966146 1051.82551838 1355.46333949 1094.30931039 1355.46453261 1136.79312009 C1355.46470405 1141.46402212 1355.46491947 1146.13492415 1355.46516705 1150.80582619 C1355.46522281 1151.9558391 1355.46527858 1153.10585202 1355.46533604 1154.29071381 C1355.46648294 1172.73521654 1355.47747418 1191.17970058 1355.4920541 1209.62419702 C1355.50647709 1228.19243064 1355.50962354 1246.76064051 1355.50161412 1265.3288782 C1355.4971849 1276.33481273 1355.50090888 1287.34067018 1355.51685263 1298.34659446 C1355.52670043 1305.72818678 1355.52533245 1313.10972591 1355.5154164 1320.4913179 C1355.51009385 1324.67756296 1355.50908289 1328.86366155 1355.52192512 1333.04989365 C1355.78233945 1423.73382475 1334.90030115 1512.14876478 1268.14159679 1636.13142776 C1267.69090832 1636.82752151 1267.24021984 1637.52361526 1266.77587414 1638.24080276 C1258.22871042 1651.39126562 1249.09877137 1664.10469596 1239.44335461 1676.46199417 C1238.08405584 1678.20522091 1236.73368122 1679.95513196 1235.38378429 1681.70564651 C1229.90285477 1688.78378822 1224.20345502 1695.53742167 1218.14159679 1702.13142776 C1216.97025015 1703.46065157 1215.80335087 1704.79381184 1214.64159679 1706.13142776 C1213.47591632 1707.46562337 1212.30910873 1708.79883451 1211.14159679 1710.13142776 C1210.53646252 1710.82341263 1209.93132824 1711.51539749 1209.30785656 1712.22835159 C1203.23422127 1719.07784011 1196.84951952 1725.57703314 1190.36645031 1732.03694534 C1188.57483729 1733.82317447 1186.78866625 1735.61472124 1185.00292492 1737.40681839 C1179.2185753 1743.19488068 1173.4057089 1748.85783672 1167.14159679 1754.13142776 C1166.02312295 1755.10390862 1164.90590731 1756.0778387 1163.79003429 1757.05330276 C1155.76617428 1764.0035989 1147.56867288 1770.67664608 1139.14159679 1777.13142776 C1138.50995617 1777.61611526 1137.87831554 1778.10080276 1137.22753429 1778.60017776 C1127.4176493 1786.10415354 1117.41153913 1793.27083019 1107.14159679 1800.13142776 C1106.46516125 1800.58372757 1105.7887257 1801.03602737 1105.09179211 1801.50203323 C1094.04299654 1808.85310955 1082.7251879 1815.65861428 1071.14159679 1822.13142776 C1070.17608898 1822.67170609 1069.21058117 1823.21198441 1068.21581554 1823.7686348 C998.26998246 1862.68544758 920.96587812 1885.93586328 841.14159679 1892.13142776 C840.1403102 1892.21477837 839.13902361 1892.29812898 838.10739499 1892.38400537 C823.15872276 1893.45194057 808.1799053 1893.2758213 793.2022285 1893.26609668 C788.9582952 1893.26445018 784.71436669 1893.26861551 780.47043496 1893.27200586 C773.04461081 1893.27713982 765.61879317 1893.27858055 758.19296741 1893.27754974 C747.14966935 1893.27602056 736.10637845 1893.28019601 725.06308178 1893.28542437 C704.18746033 1893.29508198 683.31184135 1893.29790803 662.43621793 1893.29848143 C646.30938306 1893.29894149 630.18254916 1893.30100253 614.05571461 1893.30418205 C609.40863508 1893.30507964 604.76155555 1893.30596945 600.11447603 1893.30685693 C598.38140262 1893.3071885 598.38140262 1893.3071885 596.61331764 1893.30752677 C564.12530092 1893.31367883 531.63728453 1893.31762756 499.1492672 1893.31718349 C497.92503871 1893.31716792 496.70081022 1893.31715234 495.4394839 1893.31713629 C489.23501845 1893.31705318 483.03055301 1893.31695414 476.82608756 1893.31685158 C475.593928 1893.31683163 474.36176844 1893.31681169 473.09227071 1893.31679114 C470.60054383 1893.3167507 468.10881695 1893.3167089 465.61709007 1893.31666575 C426.86524546 1893.31605324 388.1134096 1893.323556 349.3615675 1893.33723831 C305.79139894 1893.35261563 262.22123614 1893.36120353 218.65106469 1893.36027509 C214.00052726 1893.36020046 209.34998983 1893.36015175 204.6994524 1893.36012077 C203.5544327 1893.36010912 202.409413 1893.36009746 201.22969574 1893.36008546 C182.84312741 1893.36005475 164.45656671 1893.36642707 146.07000065 1893.37505304 C127.57360186 1893.38355073 109.07721417 1893.38450295 90.5808145 1893.37794372 C79.60876299 1893.37426206 68.63674533 1893.37603881 57.66469744 1893.38588606 C50.31589995 1893.39192115 42.96712676 1893.39055175 35.61833035 1893.38341556 C31.44427899 1893.37956356 27.27029272 1893.37867161 23.09624615 1893.38687291 C-1.59353783 1893.4322339 -26.08840018 1892.55364923 -50.60840321 1889.38142776 C-51.57708836 1889.25787415 -51.57708836 1889.25787415 -52.5653429 1889.13182449 C-107.94132237 1882.01021113 -162.22935812 1866.6810619 -212.85840321 1843.13142776 C-214.02258778 1842.59114944 -215.18677235 1842.05087112 -216.38623524 1841.49422073 C-232.96495758 1833.77003538 -249.12988991 1825.48936633 -264.85840321 1816.13142776 C-265.74962879 1815.60194534 -266.64085438 1815.07246292 -267.5590868 1814.52693558 C-286.46930956 1803.21724045 -304.38923282 1790.5439498 -321.85840321 1777.13142776 C-322.47973133 1776.6557637 -323.10105946 1776.18009964 -323.74121571 1775.69002151 C-331.41215679 1769.80040775 -338.73467749 1763.68025632 -345.85840321 1757.13142776 C-347.18762701 1755.96008112 -348.52078728 1754.79318184 -349.85840321 1753.63142776 C-351.19233492 1752.46544531 -352.52558656 1751.29868466 -353.85840321 1750.13142776 C-354.53298573 1749.54369583 -355.20756824 1748.9559639 -355.90259266 1748.35042191 C-363.22906093 1741.86891903 -370.14186311 1735.00040394 -377.04565907 1728.074543 C-379.04917307 1726.06564912 -381.05800472 1724.06218387 -383.06738758 1722.05916214 C-389.20751853 1715.92255196 -395.29475664 1709.80441786 -400.85840321 1703.13142776 C-401.7585319 1702.08636987 -402.65954183 1701.04207021 -403.56152821 1699.99861526 C-409.71116089 1692.77374006 -415.68463465 1685.43766169 -421.47559071 1677.92195511 C-422.37491399 1676.75747118 -423.278351 1675.59614872 -424.18652821 1674.43855667 C-477.6957492 1606.1946274 -513.7803677 1523.0803026 -535.61712769 1394.46705134 C-535.77867392 1392.90323257 -535.94330112 1391.33972916 -536.1109288 1389.77655058 C-537.9927563 1371.82387807 -538.14864328 1353.94454351 -538.12153968 1335.9191946 C-538.11731358 1331.61251163 -538.12480243 1327.30584474 -538.13069218 1322.99916589 C-538.13940027 1315.47384585 -538.14078566 1307.94855304 -538.13718891 1300.42322922 C-538.13185422 1289.23177605 -538.13800493 1278.04034897 -538.14627184 1266.84889863 C-538.1614723 1245.6912103 -538.16322093 1224.53353398 -538.16074882 1203.37584133 C-538.15891242 1187.0294494 -538.16068303 1170.68306137 -538.16497326 1154.33666992 C-538.16557567 1151.98380472 -538.16617687 1149.63093952 -538.16677686 1147.27807432 C-538.16768417 1143.73200456 -538.16859284 1140.1859348 -538.16950921 1136.63986504 C-538.17793304 1103.68993749 -538.18227845 1070.74001141 -538.17810249 1037.79008293 C-538.17786793 1035.92874456 -538.17786793 1035.92874456 -538.17762863 1034.02980339 C-538.17682291 1027.74124636 -538.17597714 1021.45268934 -538.17511532 1015.16413231 C-538.17494424 1013.9153281 -538.17477315 1012.66652389 -538.17459688 1011.37987712 C-538.17425022 1008.85449335 -538.17390169 1006.32910958 -538.17355129 1003.80372581 C-538.16819659 964.52704596 -538.17611971 925.25038858 -538.19458485 885.97371292 C-538.21533357 841.78852659 -538.22602198 797.60335417 -538.22200936 753.4181627 C-538.22161405 748.70022289 -538.2212525 743.98228308 -538.22091198 739.26434326 C-538.22082125 738.10277265 -538.22073052 736.94120203 -538.22063704 735.74443231 C-538.21947444 718.26229642 -538.22609363 700.78017466 -538.2367239 683.2980423 C-538.24881312 663.3969694 -538.25029228 643.49592746 -538.23793373 623.59485407 C-538.23133878 612.47959807 -538.23285779 601.36441622 -538.24652225 590.24916626 C-538.25483709 582.79750072 -538.25197917 575.34589006 -538.24054698 567.89422888 C-538.23435924 563.66644764 -538.23250719 559.43880979 -538.24441031 555.21103747 C-538.31830691 527.05291424 -536.81454765 499.07401985 -532.17090321 471.25642776 C-532.0465691 470.49067429 -531.92223499 469.72492081 -531.79413319 468.93596268 C-527.38140742 441.8542435 -521.21572519 415.27332113 -512.85840321 389.13142776 C-512.51728504 388.04136429 -512.17616688 386.95130081 -511.8247118 385.82820511 C-495.27053709 333.06611031 -470.21744556 282.02904569 -437.85840321 237.13142776 C-437.32537586 236.38876663 -436.79234852 235.6461055 -436.24316883 234.88093948 C-428.15465785 223.64971457 -419.7244635 212.75826446 -410.85840321 202.13142776 C-410.36710926 201.54103714 -409.87581532 200.95064651 -409.36963367 200.34236526 C-403.98963725 193.88998636 -398.50691244 187.54587523 -392.83105946 181.35017776 C-390.77129009 179.08808569 -390.77129009 179.08808569 -388.72949696 176.35017776 C-388.11203602 175.61799026 -387.49457508 174.88580276 -386.85840321 174.13142776 C-386.19840321 174.13142776 -385.53840321 174.13142776 -384.85840321 174.13142776 C-384.60768055 173.55618362 -384.35695789 172.98093948 -384.09863758 172.3882637 C-382.69111494 169.82701581 -381.07670295 168.09085384 -379.01465321 166.02205276 C-378.26312977 165.2679512 -377.51160633 164.51384964 -376.73730946 163.73689651 C-375.95227039 162.95959183 -375.16723133 162.18228714 -374.35840321 161.38142776 C-373.57336414 160.58865433 -372.78832508 159.79588089 -371.97949696 158.97908401 C-371.22797352 158.2301387 -370.47645008 157.48119339 -369.70215321 156.70955276 C-369.0131493 156.02280472 -368.32414539 155.33605667 -367.61426258 154.62849808 C-365.85840321 153.13142776 -365.85840321 153.13142776 -363.85840321 153.13142776 C-363.85840321 152.47142776 -363.85840321 151.81142776 -363.85840321 151.13142776 C-362.49512196 149.75642776 -362.49512196 149.75642776 -360.54590321 148.13142776 C-357.14192873 145.24284379 -353.82757922 142.28349099 -350.54590321 139.25642776 C-345.14342801 134.33565475 -339.5560274 129.70442287 -333.85840321 125.13142776 C-332.72641534 124.20753327 -331.59492834 123.28302487 -330.46387196 122.35799026 C-252.92295482 59.22937572 -158.72729028 19.51081421 0 0 Z " fill="#053345" transform="translate(538.8584032058716,0.8685722351074219)"/>
<path d="M0 0 C2.45336278 0.36221196 4.90911737 0.68897258 7.36865234 1.00634766 C91.64145319 12.0566228 176.30051072 40.50310328 249.56933594 83.66943359 C252.66058693 85.48510483 255.76783624 87.27138985 258.87646484 89.05712891 C287.52957125 105.63699275 314.64997444 124.62556871 340.45068359 145.36181641 C341.37880859 146.10689453 342.30693359 146.85197266 343.26318359 147.61962891 C353.9842969 156.31495045 364.44475138 165.30526333 374.56396484 174.69384766 C376.38083098 176.37303517 378.2099665 178.03913774 380.05615234 179.68603516 C387.3633887 186.23407812 394.31920155 193.12186993 401.26318359 200.04931641 C401.76322906 200.54677368 402.26327454 201.04423096 402.7784729 201.5567627 C407.997416 206.75440398 413.12577743 211.98800444 417.91918945 217.58520508 C420.30805471 220.35641064 422.823267 223.00608209 425.32568359 225.67431641 C429.72721948 230.41064779 433.93092013 235.24937992 437.97802734 240.29541016 C439.88656278 242.6622353 441.81531053 245.00368568 443.76708984 247.33447266 C449.45859 254.14102642 455.09955734 260.98525119 460.38818359 268.11181641 C460.81929443 268.67167236 461.25040527 269.23152832 461.69458008 269.80834961 C463.4416754 272.22188171 464.46256027 273.80383368 464.39819336 276.82788086 C463.05894395 280.40944996 461.23878701 281.08779459 457.88818359 282.85791016 C457.31408752 283.16778366 456.73999146 283.47765717 456.14849854 283.79692078 C454.25722266 284.81354557 452.35426104 285.80594727 450.45068359 286.79931641 C449.12512264 287.50754048 447.80058804 288.21768868 446.47705078 288.9296875 C443.77307191 290.38306693 441.0654005 291.82917968 438.35498047 293.27050781 C432.75605867 296.25768516 427.2283284 299.37025057 421.70068359 302.48681641 C419.6513703 303.63685161 417.60189138 304.78659174 415.55224609 305.93603516 C414.54581055 306.50112793 413.539375 307.0662207 412.50244141 307.6484375 C407.361655 310.53468062 402.2189883 313.41756372 397.07568359 316.29931641 C396.05071777 316.87367432 395.02575195 317.44803223 393.96972656 318.03979492 C386.26554306 322.35363265 378.54730456 326.64178747 370.82568359 330.92431641 C362.51368807 335.5347932 354.21937136 340.17411315 345.95068359 344.86181641 C336.5435596 350.19492452 327.0991913 355.45858702 317.64257812 360.70336914 C307.96518989 366.07165099 298.30621333 371.47220489 288.65380859 376.88525391 C284.43780655 379.24957931 280.21882984 381.60847442 275.99755859 383.96337891 C274.9327124 384.55803955 273.86786621 385.1527002 272.77075195 385.76538086 C270.66290387 386.94227747 268.55435705 388.11792361 266.44506836 389.29223633 C261.54705235 392.02825116 256.68028619 394.8004269 251.86865234 397.68603516 C251.00288574 398.20206299 250.13711914 398.71809082 249.24511719 399.24975586 C247.64342507 400.20941617 246.04813111 401.17987597 244.4609375 402.16333008 C237.29691502 406.44919797 237.29691502 406.44919797 232.45068359 405.36181641 C230.33943459 403.55989692 228.75381943 401.96983536 227.01318359 399.86181641 C226.57425781 399.35650391 226.13533203 398.85119141 225.68310547 398.33056641 C224.25832661 396.68580004 222.85430942 395.02465892 221.45068359 393.36181641 C216.24106456 387.22510969 210.71789896 381.47684489 205.01318359 375.79931641 C203.80178711 374.58211914 203.80178711 374.58211914 202.56591797 373.34033203 C197.69073856 368.47300948 192.70636138 363.81486694 187.45068359 359.36181641 C186.82025146 358.82468018 186.18981934 358.28754395 185.5402832 357.73413086 C162.92083968 338.59194901 138.7814901 322.05093468 112.86279297 307.69921875 C110.70251211 306.5014436 108.55282189 305.28665764 106.40380859 304.06884766 C31.15676429 262.12274397 -61.57208221 247.77107512 -200.15917969 269.68017578 C-200.9479248 269.90511719 -201.73666992 270.13005859 -202.54931641 270.36181641 C-203.41927246 270.60480469 -204.28922852 270.84779297 -205.18554688 271.09814453 C-233.75836475 279.14796224 -261.26977326 290.59226518 -287.54931641 304.36181641 C-288.30116211 304.755625 -289.05300781 305.14943359 -289.82763672 305.55517578 C-308.74076192 315.5420491 -326.87336511 326.76924285 -343.73632812 339.94580078 C-345.5214236 341.34003102 -347.31727458 342.71924686 -349.11572266 344.09619141 C-369.6872405 359.93826294 -389.66347511 377.61171012 -406.54931641 397.36181641 C-407.39880859 398.32216797 -408.24830078 399.28251953 -409.12353516 400.27197266 C-426.75568494 420.31151951 -442.03129338 442.374671 -455.54931641 465.36181641 C-455.96004395 466.05936035 -456.37077148 466.7569043 -456.79394531 467.47558594 C-469.05011527 488.47840638 -479.14227488 510.56410526 -487.54931641 533.36181641 C-488.10606335 534.82816918 -488.6633198 536.29432864 -489.22119141 537.76025391 C-493.25191358 548.54952221 -496.08741681 559.60212393 -498.88525391 570.76464844 C-499.4524011 572.98277777 -500.04794277 575.18720719 -500.67431641 577.38916016 C-513.89526478 624.12727843 -515.56946249 675.2520831 -510.54931641 723.36181641 C-510.44748047 724.37018555 -510.34564453 725.37855469 -510.24072266 726.41748047 C-501.36753662 811.8355893 -463.74857 894.4639125 -406.54931641 958.36181641 C-406.0871875 958.8803418 -405.62505859 959.39886719 -405.14892578 959.93310547 C-403.76773528 961.47752758 -402.37754954 963.01348904 -400.98681641 964.54931641 C-400.54305664 965.05076172 -400.09929687 965.55220703 -399.64208984 966.06884766 C-397.39495941 968.55948532 -395.19913181 970.61820156 -392.48681641 972.60400391 C-388.23207867 975.89477762 -385.12569111 978.67270767 -383.98120117 984.01239014 C-383.63856888 987.24448914 -383.44296717 990.45460386 -383.29931641 993.70166016 C-383.22929916 994.89811157 -383.15928192 996.09456299 -383.08714294 997.32727051 C-382.88076488 1001.00467907 -382.70931398 1004.68212197 -382.54931641 1008.36181641 C-382.47609665 1009.95607956 -382.47609665 1009.95607956 -382.40139771 1011.58255005 C-382.12566747 1017.73909205 -381.90863237 1023.89646493 -381.71615601 1030.05612183 C-381.52711752 1036.04525246 -381.31487941 1042.03357738 -381.10400391 1048.02197266 C-381.0598082 1049.28219742 -381.01561249 1050.54242218 -380.97007751 1051.84083557 C-380.47272113 1065.83054661 -379.86776551 1079.81506851 -379.23681641 1093.79931641 C-379.19201519 1094.79409563 -379.19201519 1094.79409563 -379.1463089 1095.80897141 C-377.33791295 1135.92071646 -375.37274749 1176.02543766 -373.42933655 1216.1308136 C-372.94509902 1226.12978094 -372.46410981 1236.12888428 -371.99169922 1246.12841797 C-371.94699021 1247.07344649 -371.90228121 1248.01847502 -371.85621738 1248.99214077 C-371.64825123 1253.3892116 -371.44098482 1257.78631282 -371.23521423 1262.18348694 C-370.44783496 1278.91547482 -369.51188629 1295.63909904 -368.54931641 1312.36181641 C-368.11699707 1311.95455322 -367.68467773 1311.54729004 -367.23925781 1311.12768555 C-359.0856237 1303.45157502 -350.9133446 1295.80923877 -342.54931641 1288.36181641 C-334.10538691 1280.79517828 -325.74214275 1273.14271976 -317.40087891 1265.46337891 C-308.76992906 1257.52452715 -308.76992906 1257.52452715 -304.61181641 1253.92431641 C-299.37210105 1249.37889046 -294.31740498 1244.63051416 -289.22949219 1239.91699219 C-276.89465037 1228.49982532 -276.89465037 1228.49982532 -271.61181641 1223.92431641 C-266.37210105 1219.37889046 -261.31740498 1214.63051416 -256.22949219 1209.91699219 C-243.89465037 1198.49982532 -243.89465037 1198.49982532 -238.61181641 1193.92431641 C-233.37210105 1189.37889046 -228.31740498 1184.63051416 -223.22949219 1179.91699219 C-210.89465037 1168.49982532 -210.89465037 1168.49982532 -205.61181641 1163.92431641 C-200.37210105 1159.37889046 -195.31740498 1154.63051416 -190.22949219 1149.91699219 C-177.89465037 1138.49982532 -177.89465037 1138.49982532 -172.61181641 1133.92431641 C-167.37210105 1129.37889046 -162.31740498 1124.63051416 -157.22949219 1119.91699219 C-150.54855746 1113.73309881 -143.85953769 1107.56196651 -136.97509766 1101.60400391 C-136.14488635 1100.88069652 -135.3279127 1100.1404127 -134.54931641 1099.36181641 C-132.83538386 1099.34479945 -131.12070608 1099.40008444 -129.40869141 1099.48291016 C-128.29518311 1099.53165283 -127.1816748 1099.58039551 -126.03442383 1099.63061523 C-124.80183838 1099.68628662 -123.56925293 1099.74195801 -122.29931641 1099.79931641 C-82.98652714 1101.27842116 -44.11969609 1100.62659472 -5.52978516 1092.01953125 C-2.51156611 1091.35348586 0.51413293 1090.73982045 3.54443359 1090.13134766 C31.80364694 1084.26042416 59.21419714 1074.28040214 85.45068359 1062.36181641 C86.32450684 1061.96897461 87.19833008 1061.57613281 88.09863281 1061.17138672 C114.1591904 1049.39821743 138.59736525 1034.52005862 161.45068359 1017.36181641 C162.05348145 1016.91209473 162.6562793 1016.46237305 163.27734375 1015.99902344 C175.41760359 1006.91875545 186.8221057 997.0832179 197.92285156 986.77197266 C199.53850938 985.28075509 201.16674679 983.80432415 202.79833984 982.33056641 C203.62096313 981.58516602 203.62096313 981.58516602 204.46020508 980.82470703 C205.51100096 979.87316269 206.56379623 978.92382006 207.61889648 977.97705078 C209.94021601 975.86726352 211.69692772 973.99245022 213.45068359 971.36181641 C214.11068359 971.36181641 214.77068359 971.36181641 215.45068359 971.36181641 C215.70720703 970.77529297 215.96373047 970.18876953 216.22802734 969.58447266 C217.56242255 967.15868711 218.99553687 965.6865294 221.01318359 963.79931641 C225.93781054 958.99936356 230.17319119 953.7364819 234.45068359 948.36181641 C235.22541016 947.39630859 236.00013672 946.43080078 236.79833984 945.43603516 C238.686753 943.08134715 240.57074186 940.7232691 242.45068359 938.36181641 C246.72193826 938.95281378 249.71091133 940.45767936 253.40380859 942.65087891 C253.97192764 942.98569275 254.54004669 943.32050659 255.12538147 943.66546631 C256.98802408 944.76564659 258.84432241 945.8760757 260.70068359 946.98681641 C262.01178908 947.76423978 263.32323603 948.54108754 264.63500977 949.31738281 C268.57972497 951.65526671 272.51610142 954.00692978 276.45068359 956.36181641 C278.07901123 957.33538086 278.07901123 957.33538086 279.74023438 958.32861328 C284.79005711 961.35060524 289.83441364 964.38156775 294.87646484 967.41650391 C302.38281598 971.92929871 309.91676832 976.39526264 317.45068359 980.86181641 C327.17487493 986.62741474 336.88704232 992.41160363 346.57568359 998.23681641 C354.91628385 1003.25055916 363.2768393 1008.22834195 371.65893555 1013.17236328 C379.8678266 1018.01460872 388.0675636 1022.87215176 396.26318359 1027.73681641 C396.95155304 1028.14540894 397.63992249 1028.55400146 398.34915161 1028.97497559 C408.21549265 1034.83280407 418.06434003 1040.71893824 427.89648438 1046.6340332 C433.88591455 1050.23380991 439.88765051 1053.81205683 445.89990234 1057.37353516 C446.62464752 1057.80300446 447.3493927 1058.23247375 448.09609985 1058.67495728 C451.66867698 1060.79161495 455.24240574 1062.90629132 458.81787109 1065.01806641 C460.12649693 1065.7927518 461.43509213 1066.56748894 462.74365234 1067.34228516 C463.33321213 1067.68958176 463.92277191 1068.03687836 464.53019714 1068.3946991 C468.25641403 1070.60360992 471.86632569 1072.93302484 475.45068359 1075.36181641 C474.90317495 1078.98817743 474.06411139 1081.34467446 471.89599609 1084.29541016 C471.3690918 1085.01978271 470.8421875 1085.74415527 470.29931641 1086.49047852 C469.73051758 1087.25239502 469.16171875 1088.01431152 468.57568359 1088.79931641 C467.69928223 1089.9914978 467.69928223 1089.9914978 466.80517578 1091.20776367 C461.50511295 1098.37924045 456.04771692 1105.42026881 450.45068359 1112.36181641 C449.69271484 1113.30283203 448.93474609 1114.24384766 448.15380859 1115.21337891 C439.93212136 1125.3301359 431.5414999 1135.27431 422.72021484 1144.87353516 C420.73691807 1147.04799307 418.80438676 1149.25344858 416.88818359 1151.48681641 C413.57226825 1155.31590913 409.99870749 1158.85125961 406.36865234 1162.38134766 C404.28751292 1164.41116917 404.28751292 1164.41116917 402.45068359 1167.36181641 C401.79068359 1167.36181641 401.13068359 1167.36181641 400.45068359 1167.36181641 C400.12068359 1168.35181641 399.79068359 1169.34181641 399.45068359 1170.36181641 C398.79068359 1170.36181641 398.13068359 1170.36181641 397.45068359 1170.36181641 C397.12068359 1171.35181641 396.79068359 1172.34181641 396.45068359 1173.36181641 C395.79068359 1173.36181641 395.13068359 1173.36181641 394.45068359 1173.36181641 C394.12068359 1174.35181641 393.79068359 1175.34181641 393.45068359 1176.36181641 C391.95458984 1177.83447266 391.95458984 1177.83447266 390.01318359 1179.42431641 C386.65910344 1182.26238423 383.53378784 1185.23105985 380.45068359 1188.36181641 C376.91417364 1191.93606351 373.31106348 1195.33446985 369.48974609 1198.60009766 C367.2237613 1200.55787379 365.02924865 1202.58410589 362.82568359 1204.61181641 C358.29652766 1208.70333917 353.57475607 1212.47536677 348.75366211 1216.21118164 C345.01238875 1219.11490907 341.36705894 1222.0996815 337.76318359 1225.17431641 C260.88110095 1289.58081045 164.0916032 1332.94264101 67.07568359 1355.86181641 C65.84777603 1356.15262589 65.84777603 1356.15262589 64.59506226 1356.4493103 C49.62847634 1359.9787948 34.63802838 1362.93065864 19.45068359 1365.36181641 C18.37979492 1365.5405127 17.30890625 1365.71920898 16.20556641 1365.90332031 C-2.50520519 1369.01803071 -21.27708308 1370.79236392 -40.18214417 1372.18409729 C-42.00589303 1372.32101806 -43.82897128 1372.46689187 -45.65171814 1372.61656189 C-54.20108774 1373.2869648 -62.69033209 1373.52229698 -71.26416016 1373.52978516 C-72.6496229 1373.53301883 -74.03508535 1373.53638424 -75.42054749 1373.53987122 C-78.313983 1373.54581 -81.20738892 1373.54771713 -84.10083008 1373.54711914 C-86.99444962 1373.54703879 -89.88790776 1373.55384365 -92.78149414 1373.56762695 C-118.87137162 1373.68980387 -144.80410663 1372.696302 -170.73681641 1369.61181641 C-171.79213562 1369.48826279 -171.79213562 1369.48826279 -172.86877441 1369.36221313 C-206.92265546 1365.34711647 -240.57953116 1358.95491484 -273.53222656 1349.40698242 C-275.03148682 1348.98243774 -275.03148682 1348.98243774 -276.56103516 1348.54931641 C-277.43203857 1348.29537109 -278.30304199 1348.04142578 -279.20043945 1347.77978516 C-281.73532575 1347.32871714 -283.15266557 1347.46888985 -285.54931641 1348.36181641 C-287.79532073 1350.05899614 -287.79532073 1350.05899614 -290.04931641 1352.23681641 C-291.36802734 1353.45884766 -291.36802734 1353.45884766 -292.71337891 1354.70556641 C-293.64923828 1355.58212891 -294.58509766 1356.45869141 -295.54931641 1357.36181641 C-297.00783049 1358.69846004 -298.46637612 1360.03507224 -299.92724609 1361.36914062 C-303.52598272 1364.65683185 -307.11168524 1367.95875858 -310.69775391 1371.26025391 C-319.32870375 1379.19910566 -319.32870375 1379.19910566 -323.48681641 1382.79931641 C-328.72653176 1387.34474235 -333.78122783 1392.09311866 -338.86914062 1396.80664062 C-351.20398245 1408.2238075 -351.20398245 1408.2238075 -356.48681641 1412.79931641 C-361.72653176 1417.34474235 -366.78122783 1422.09311866 -371.86914062 1426.80664062 C-384.20398245 1438.2238075 -384.20398245 1438.2238075 -389.48681641 1442.79931641 C-394.72653176 1447.34474235 -399.78122783 1452.09311866 -404.86914062 1456.80664062 C-418.14195669 1469.09199929 -418.14195669 1469.09199929 -424.41259766 1474.45556641 C-426.16824366 1476.02184657 -427.85106175 1477.62145405 -429.52978516 1479.26806641 C-430.05894531 1479.77789063 -430.58810547 1480.28771484 -431.13330078 1480.81298828 C-432.18428689 1481.82813077 -433.22391284 1482.85519795 -434.25048828 1483.89501953 C-435.71728516 1485.29931641 -435.71728516 1485.29931641 -438.54931641 1487.36181641 C-441.22631836 1486.99072266 -441.22631836 1486.99072266 -443.54931641 1486.36181641 C-445.5809588 1449.13093669 -447.37744255 1411.89763909 -448.95654297 1374.64471436 C-449.1649216 1369.73577588 -449.37474962 1364.82690026 -449.58516884 1359.91804886 C-449.68993784 1357.4694009 -449.79414647 1355.0207289 -449.89778709 1352.57203293 C-450.15149017 1346.5978549 -450.41481775 1340.62443107 -450.70010376 1334.65167236 C-451.16897053 1324.66807972 -451.59888276 1314.70736596 -451.61236286 1304.71119881 C-451.62107722 1300.71996068 -451.68037526 1296.7301834 -451.74351311 1292.73948288 C-451.75704948 1290.90920319 -451.74434701 1289.07850025 -451.70263863 1287.24864578 C-451.22718001 1277.86635021 -451.22718001 1277.86635021 -455.01470566 1269.66804504 C-458.58586624 1266.60560391 -462.51883898 1264.38623869 -466.71897125 1262.30379677 C-469.34957376 1260.94996692 -471.7378705 1259.29044896 -474.15869141 1257.59619141 C-475.00544434 1257.02368652 -475.85219727 1256.45118164 -476.72460938 1255.86132812 C-492.95865875 1244.83030235 -508.6903247 1233.31961585 -523.80810547 1220.79882812 C-526.3308936 1218.71678508 -528.88023411 1216.66774846 -531.42431641 1214.61181641 C-535.80906816 1211.02249938 -540.03564247 1207.28576598 -544.22509766 1203.47119141 C-546.26973975 1201.61554984 -548.3371579 1199.79425264 -550.42431641 1197.98681641 C-560.92318991 1188.80859941 -570.89893869 1179.17225065 -580.74194336 1169.29956055 C-582.87256275 1167.16354284 -585.00852863 1165.03297522 -587.14501953 1162.90283203 C-588.5261999 1161.52099134 -589.9070703 1160.13884074 -591.28759766 1158.75634766 C-591.91378494 1158.1321846 -592.53997223 1157.50802155 -593.18513489 1156.86494446 C-596.96032979 1153.06996246 -600.54882973 1149.15751512 -604.04524231 1145.10400391 C-605.96412274 1142.88134114 -607.9431407 1140.71646454 -609.92431641 1138.54931641 C-613.76859885 1134.28436332 -617.44458546 1129.91320791 -621.05322266 1125.44775391 C-622.86129796 1123.21241824 -624.68044404 1120.98993435 -626.51416016 1118.77587891 C-638.59896119 1104.13360537 -649.75357855 1088.83471095 -660.37353516 1073.10205078 C-661.42622075 1071.54400615 -662.48722549 1069.99158986 -663.54931641 1068.43994141 C-713.57724234 994.64875066 -749.49055218 909.90221584 -766.54931641 822.36181641 C-766.78650391 821.16927246 -767.02369141 819.97672852 -767.26806641 818.74804688 C-770.538618 802.1930087 -773.20627951 785.60751171 -775.29931641 768.86181641 C-775.40018555 768.07839874 -775.50105469 767.29498108 -775.60498047 766.48782349 C-779.23858682 737.96124045 -779.99147829 709.21120624 -779.98681641 680.48681641 C-779.98796259 679.33106173 -779.98796259 679.33106173 -779.98913193 678.15195847 C-780.01261554 649.31747726 -778.35429651 620.96716137 -774.54931641 592.36181641 C-774.33884134 590.73830569 -774.12854779 589.11477143 -773.91845703 587.49121094 C-764.83381949 518.21771132 -743.86697881 450.2652955 -713.54931641 387.36181641 C-713.25863281 386.75853516 -712.96794922 386.15525391 -712.66845703 385.53369141 C-703.72215555 367.00072161 -694.22159568 348.97256544 -683.54931641 331.36181641 C-682.6070545 329.78289964 -681.66560655 328.20349675 -680.72509766 326.62353516 C-656.94626533 286.92614347 -628.54434775 249.71391068 -596.97558594 215.90136719 C-594.76573481 213.51599896 -592.60083556 211.09008652 -590.42431641 208.67431641 C-585.53342528 203.33491561 -580.47303815 198.17774589 -575.36181641 193.04931641 C-574.61335449 192.29626221 -573.86489258 191.54320801 -573.09375 190.76733398 C-569.01307849 186.69792012 -564.84242246 182.80446408 -560.47631836 179.04370117 C-557.31173156 176.28165398 -554.28509275 173.37574551 -551.23681641 170.48681641 C-546.07136936 165.62955344 -540.81644148 160.9829052 -535.27197266 156.55712891 C-532.79724848 154.56172721 -530.3800574 152.51134018 -527.97290039 150.43530273 C-520.77832604 144.24594092 -513.29463948 138.51149728 -505.64404297 132.89892578 C-504.26606506 131.88776623 -502.89034311 130.87352385 -501.51708984 129.85595703 C-473.80010252 109.32387155 -444.64389834 90.97332838 -414.19482422 74.77050781 C-411.57635981 73.37621659 -408.96511994 71.9690285 -406.35400391 70.56103516 C-342.09047521 36.13912806 -270.5427051 13.32519364 -198.54931641 2.36181641 C-197.8254071 2.24986938 -197.1014978 2.13792236 -196.35565186 2.02258301 C-131.80954832 -7.93973294 -64.69208099 -9.74742905 0 0 Z " fill="#FEFEFE" transform="translate(1038.54931640625,286.63818359375)"/>
<path d="M0 0 C1.45082846 -0.00165421 2.90165649 -0.00374255 4.35248378 -0.0062201 C8.3157246 -0.01173772 12.27894361 -0.01112344 16.24218702 -0.00944251 C20.5632288 -0.00870689 24.88426465 -0.01374492 29.20530385 -0.01801753 C37.76526356 -0.02557274 46.32521702 -0.02778933 54.88517972 -0.02834659 C65.14329368 -0.02926271 75.40140191 -0.03593767 85.6595134 -0.04269341 C110.45178783 -0.05873172 135.24406163 -0.0646546 160.03634033 -0.06944216 C171.77439081 -0.07178067 183.51244081 -0.07538364 195.25049092 -0.07913754 C235.46262478 -0.09197224 275.67475837 -0.10269061 315.88689423 -0.10614014 C318.40989775 -0.10636177 320.93290127 -0.10658355 323.45590479 -0.10680549 C325.98487185 -0.10702613 328.51383891 -0.10724661 331.04280597 -0.10746694 C336.11601945 -0.10790948 341.18923293 -0.1083566 346.2624464 -0.10880661 C347.52030271 -0.108916 348.77815901 -0.10902539 350.07413217 -0.1091381 C390.83094755 -0.11276615 431.58774512 -0.12867713 472.34455368 -0.15199697 C515.47475281 -0.17662949 558.60494177 -0.1903146 601.73514813 -0.19150805 C606.47597452 -0.1916795 611.21680091 -0.19189492 615.9576273 -0.19214249 C617.12487979 -0.19219826 618.29213228 -0.19225402 619.49475606 -0.19231148 C638.22733445 -0.19345906 656.95989446 -0.20445622 675.69246666 -0.21902954 C694.54666732 -0.23344304 713.4008446 -0.23660428 732.25504927 -0.22858956 C743.43489799 -0.22415582 754.61467089 -0.2279028 765.79450955 -0.24382807 C773.28830546 -0.25365992 780.78204891 -0.2523226 788.27584447 -0.24239184 C792.52868798 -0.23705814 796.78138712 -0.23609646 801.03421799 -0.24890056 C828.08418877 -0.32524884 854.88458137 1.11424048 881.64159679 5.38142776 C882.62464794 5.53483124 882.62464794 5.53483124 883.62755871 5.69133377 C976.37956904 20.22237244 1064.41936198 57.90103732 1158.46776867 131.70027542 C1160.22186528 133.20005872 1161.98555851 134.6879563 1163.75097179 136.17439651 C1169.79185433 141.27820714 1175.61300711 146.4461428 1181.13378429 152.11970901 C1183.06741325 154.0570999 1185.06366957 155.85092934 1187.14159679 157.63142776 C1193.6170654 163.20573772 1199.51667715 169.29518437 1205.07128429 175.77986526 C1207.26842675 178.27548745 1209.53049471 180.69904864 1211.80663586 183.12239456 C1217.87312614 189.58471381 1223.60364924 196.20671246 1229.14159679 203.13142776 C1230.1697918 204.38156944 1231.19986945 205.63016419 1232.23144054 206.87752151 C1238.81704062 214.86115485 1245.09610002 222.96787576 1250.99169445 231.4742012 C1252.11061948 233.0867836 1253.2411876 234.69126762 1254.37206554 236.29549026 C1271.72335479 261.0479489 1286.59842861 287.11874266 1300.14159679 314.13142776 C1300.57311047 314.99042679 1301.00462414 315.84942581 1301.44921398 316.73445511 C1317.93046765 349.81245351 1330.00582418 385.36004001 1339.14159679 421.13142776 C1339.39602551 422.11530472 1339.65045422 423.09918167 1339.91259289 424.11287308 C1347.24589528 452.86164488 1351.71605403 482.57524307 1354.14159679 512.13142776 C1354.22965297 513.17890991 1354.31770914 514.22639205 1354.40843368 515.30561608 C1355.46886831 530.23676382 1355.28893016 545.20104378 1355.28246707 560.160942 C1355.28172941 564.4182992 1355.28677415 568.67565045 1355.29104209 572.93300503 C1355.29858563 581.36010437 1355.30081329 589.78719736 1355.30137115 598.21429972 C1355.30228843 608.31595689 1355.30896677 618.41760826 1355.31571797 628.51926292 C1355.331744 652.93054349 1355.33767766 677.3418234 1355.34246672 701.75310828 C1355.34480636 713.31347085 1355.34840944 724.87383293 1355.35216209 736.43419511 C1355.36499542 776.04741805 1355.37571413 815.66064073 1355.3791647 855.2738657 C1355.37938632 857.75851429 1355.37960811 860.24316288 1355.37983005 862.72781147 C1355.38005068 865.21828352 1355.38027117 867.70875558 1355.3804915 870.19922763 C1355.38093403 875.19510098 1355.38138115 880.19097434 1355.38183117 885.18684769 C1355.38194056 886.42552494 1355.38204995 887.6642022 1355.38216266 888.94041513 C1355.38579057 929.07419044 1355.40170171 969.20794765 1355.42502153 1009.34171604 C1355.44966146 1051.82551838 1355.46333949 1094.30931039 1355.46453261 1136.79312009 C1355.46470405 1141.46402212 1355.46491947 1146.13492415 1355.46516705 1150.80582619 C1355.46522281 1151.9558391 1355.46527858 1153.10585202 1355.46533604 1154.29071381 C1355.46648294 1172.73521654 1355.47747418 1191.17970058 1355.4920541 1209.62419702 C1355.50647709 1228.19243064 1355.50962354 1246.76064051 1355.50161412 1265.3288782 C1355.4971849 1276.33481273 1355.50090888 1287.34067018 1355.51685263 1298.34659446 C1355.52670043 1305.72818678 1355.52533245 1313.10972591 1355.5154164 1320.4913179 C1355.51009385 1324.67756296 1355.50908289 1328.86366155 1355.52192512 1333.04989365 C1355.78233945 1423.73382475 1334.90030115 1512.14876478 1268.14159679 1636.13142776 C1267.69090832 1636.82752151 1267.24021984 1637.52361526 1266.77587414 1638.24080276 C1258.22871042 1651.39126562 1249.09877137 1664.10469596 1239.44335461 1676.46199417 C1238.08405584 1678.20522091 1236.73368122 1679.95513196 1235.38378429 1681.70564651 C1229.90285477 1688.78378822 1224.20345502 1695.53742167 1218.14159679 1702.13142776 C1216.97025015 1703.46065157 1215.80335087 1704.79381184 1214.64159679 1706.13142776 C1213.47591632 1707.46562337 1212.30910873 1708.79883451 1211.14159679 1710.13142776 C1210.53646252 1710.82341263 1209.93132824 1711.51539749 1209.30785656 1712.22835159 C1203.23422127 1719.07784011 1196.84951952 1725.57703314 1190.36645031 1732.03694534 C1188.57483729 1733.82317447 1186.78866625 1735.61472124 1185.00292492 1737.40681839 C1179.2185753 1743.19488068 1173.4057089 1748.85783672 1167.14159679 1754.13142776 C1166.02312295 1755.10390862 1164.90590731 1756.0778387 1163.79003429 1757.05330276 C1155.76617428 1764.0035989 1147.56867288 1770.67664608 1139.14159679 1777.13142776 C1138.50995617 1777.61611526 1137.87831554 1778.10080276 1137.22753429 1778.60017776 C1127.4176493 1786.10415354 1117.41153913 1793.27083019 1107.14159679 1800.13142776 C1106.46516125 1800.58372757 1105.7887257 1801.03602737 1105.09179211 1801.50203323 C1094.04299654 1808.85310955 1082.7251879 1815.65861428 1071.14159679 1822.13142776 C1070.17608898 1822.67170609 1069.21058117 1823.21198441 1068.21581554 1823.7686348 C998.26998246 1862.68544758 920.96587812 1885.93586328 841.14159679 1892.13142776 C840.1403102 1892.21477837 839.13902361 1892.29812898 838.10739499 1892.38400537 C823.15872276 1893.45194057 808.1799053 1893.2758213 793.2022285 1893.26609668 C788.9582952 1893.26445018 784.71436669 1893.26861551 780.47043496 1893.27200586 C773.04461081 1893.27713982 765.61879317 1893.27858055 758.19296741 1893.27754974 C747.14966935 1893.27602056 736.10637845 1893.28019601 725.06308178 1893.28542437 C704.18746033 1893.29508198 683.31184135 1893.29790803 662.43621793 1893.29848143 C646.30938306 1893.29894149 630.18254916 1893.30100253 614.05571461 1893.30418205 C609.40863508 1893.30507964 604.76155555 1893.30596945 600.11447603 1893.30685693 C598.38140262 1893.3071885 598.38140262 1893.3071885 596.61331764 1893.30752677 C564.12530092 1893.31367883 531.63728453 1893.31762756 499.1492672 1893.31718349 C497.92503871 1893.31716792 496.70081022 1893.31715234 495.4394839 1893.31713629 C489.23501845 1893.31705318 483.03055301 1893.31695414 476.82608756 1893.31685158 C475.593928 1893.31683163 474.36176844 1893.31681169 473.09227071 1893.31679114 C470.60054383 1893.3167507 468.10881695 1893.3167089 465.61709007 1893.31666575 C426.86524546 1893.31605324 388.1134096 1893.323556 349.3615675 1893.33723831 C305.79139894 1893.35261563 262.22123614 1893.36120353 218.65106469 1893.36027509 C214.00052726 1893.36020046 209.34998983 1893.36015175 204.6994524 1893.36012077 C203.5544327 1893.36010912 202.409413 1893.36009746 201.22969574 1893.36008546 C182.84312741 1893.36005475 164.45656671 1893.36642707 146.07000065 1893.37505304 C127.57360186 1893.38355073 109.07721417 1893.38450295 90.5808145 1893.37794372 C79.60876299 1893.37426206 68.63674533 1893.37603881 57.66469744 1893.38588606 C50.31589995 1893.39192115 42.96712676 1893.39055175 35.61833035 1893.38341556 C31.44427899 1893.37956356 27.27029272 1893.37867161 23.09624615 1893.38687291 C-1.59353783 1893.4322339 -26.08840018 1892.55364923 -50.60840321 1889.38142776 C-51.57708836 1889.25787415 -51.57708836 1889.25787415 -52.5653429 1889.13182449 C-107.94132237 1882.01021113 -162.22935812 1866.6810619 -212.85840321 1843.13142776 C-214.02258778 1842.59114944 -215.18677235 1842.05087112 -216.38623524 1841.49422073 C-232.96495758 1833.77003538 -249.12988991 1825.48936633 -264.85840321 1816.13142776 C-265.74962879 1815.60194534 -266.64085438 1815.07246292 -267.5590868 1814.52693558 C-286.46930956 1803.21724045 -304.38923282 1790.5439498 -321.85840321 1777.13142776 C-322.47973133 1776.6557637 -323.10105946 1776.18009964 -323.74121571 1775.69002151 C-331.41215679 1769.80040775 -338.73467749 1763.68025632 -345.85840321 1757.13142776 C-347.18762701 1755.96008112 -348.52078728 1754.79318184 -349.85840321 1753.63142776 C-351.19233492 1752.46544531 -352.52558656 1751.29868466 -353.85840321 1750.13142776 C-354.53298573 1749.54369583 -355.20756824 1748.9559639 -355.90259266 1748.35042191 C-363.22906093 1741.86891903 -370.14186311 1735.00040394 -377.04565907 1728.074543 C-379.04917307 1726.06564912 -381.05800472 1724.06218387 -383.06738758 1722.05916214 C-389.20751853 1715.92255196 -395.29475664 1709.80441786 -400.85840321 1703.13142776 C-401.7585319 1702.08636987 -402.65954183 1701.04207021 -403.56152821 1699.99861526 C-409.71116089 1692.77374006 -415.68463465 1685.43766169 -421.47559071 1677.92195511 C-422.37491399 1676.75747118 -423.278351 1675.59614872 -424.18652821 1674.43855667 C-477.6957492 1606.1946274 -513.7803677 1523.0803026 -535.61712769 1394.46705134 C-535.77867392 1392.90323257 -535.94330112 1391.33972916 -536.1109288 1389.77655058 C-537.9927563 1371.82387807 -538.14864328 1353.94454351 -538.12153968 1335.9191946 C-538.11731358 1331.61251163 -538.12480243 1327.30584474 -538.13069218 1322.99916589 C-538.13940027 1315.47384585 -538.14078566 1307.94855304 -538.13718891 1300.42322922 C-538.13185422 1289.23177605 -538.13800493 1278.04034897 -538.14627184 1266.84889863 C-538.1614723 1245.6912103 -538.16322093 1224.53353398 -538.16074882 1203.37584133 C-538.15891242 1187.0294494 -538.16068303 1170.68306137 -538.16497326 1154.33666992 C-538.16557567 1151.98380472 -538.16617687 1149.63093952 -538.16677686 1147.27807432 C-538.16768417 1143.73200456 -538.16859284 1140.1859348 -538.16950921 1136.63986504 C-538.17793304 1103.68993749 -538.18227845 1070.74001141 -538.17810249 1037.79008293 C-538.17786793 1035.92874456 -538.17786793 1035.92874456 -538.17762863 1034.02980339 C-538.17682291 1027.74124636 -538.17597714 1021.45268934 -538.17511532 1015.16413231 C-538.17494424 1013.9153281 -538.17477315 1012.66652389 -538.17459688 1011.37987712 C-538.17425022 1008.85449335 -538.17390169 1006.32910958 -538.17355129 1003.80372581 C-538.16819659 964.52704596 -538.17611971 925.25038858 -538.19458485 885.97371292 C-538.21533357 841.78852659 -538.22602198 797.60335417 -538.22200936 753.4181627 C-538.22161405 748.70022289 -538.2212525 743.98228308 -538.22091198 739.26434326 C-538.22082125 738.10277265 -538.22073052 736.94120203 -538.22063704 735.74443231 C-538.21947444 718.26229642 -538.22609363 700.78017466 -538.2367239 683.2980423 C-538.24881312 663.3969694 -538.25029228 643.49592746 -538.23793373 623.59485407 C-538.23133878 612.47959807 -538.23285779 601.36441622 -538.24652225 590.24916626 C-538.25483709 582.79750072 -538.25197917 575.34589006 -538.24054698 567.89422888 C-538.23435924 563.66644764 -538.23250719 559.43880979 -538.24441031 555.21103747 C-538.31830691 527.05291424 -536.81454765 499.07401985 -532.17090321 471.25642776 C-532.0465691 470.49067429 -531.92223499 469.72492081 -531.79413319 468.93596268 C-527.38140742 441.8542435 -521.21572519 415.27332113 -512.85840321 389.13142776 C-512.51728504 388.04136429 -512.17616688 386.95130081 -511.8247118 385.82820511 C-495.27053709 333.06611031 -470.21744556 282.02904569 -437.85840321 237.13142776 C-437.32537586 236.38876663 -436.79234852 235.6461055 -436.24316883 234.88093948 C-428.15465785 223.64971457 -419.7244635 212.75826446 -410.85840321 202.13142776 C-410.36710926 201.54103714 -409.87581532 200.95064651 -409.36963367 200.34236526 C-403.98963725 193.88998636 -398.50691244 187.54587523 -392.83105946 181.35017776 C-390.77129009 179.08808569 -390.77129009 179.08808569 -388.72949696 176.35017776 C-388.11203602 175.61799026 -387.49457508 174.88580276 -386.85840321 174.13142776 C-386.19840321 174.13142776 -385.53840321 174.13142776 -384.85840321 174.13142776 C-384.60768055 173.55618362 -384.35695789 172.98093948 -384.09863758 172.3882637 C-382.69111494 169.82701581 -381.07670295 168.09085384 -379.01465321 166.02205276 C-378.26312977 165.2679512 -377.51160633 164.51384964 -376.73730946 163.73689651 C-375.95227039 162.95959183 -375.16723133 162.18228714 -374.35840321 161.38142776 C-373.57336414 160.58865433 -372.78832508 159.79588089 -371.97949696 158.97908401 C-371.22797352 158.2301387 -370.47645008 157.48119339 -369.70215321 156.70955276 C-369.0131493 156.02280472 -368.32414539 155.33605667 -367.61426258 154.62849808 C-365.85840321 153.13142776 -365.85840321 153.13142776 -363.85840321 153.13142776 C-363.85840321 152.47142776 -363.85840321 151.81142776 -363.85840321 151.13142776 C-362.49512196 149.75642776 -362.49512196 149.75642776 -360.54590321 148.13142776 C-357.14192873 145.24284379 -353.82757922 142.28349099 -350.54590321 139.25642776 C-345.14342801 134.33565475 -339.5560274 129.70442287 -333.85840321 125.13142776 C-332.72641534 124.20753327 -331.59492834 123.28302487 -330.46387196 122.35799026 C-252.92295482 59.22937572 -158.72729028 19.51081421 0 0 Z M-71.47217274 89.28474808 C-74.57495699 90.06055599 -77.68236004 90.81336808 -80.79199696 91.56111526 C-116.0090214 100.19613239 -149.50514777 113.88654423 -181.85840321 130.13142776 C-182.78088856 130.59404007 -183.70337391 131.05665237 -184.65381336 131.53328323 C-203.12178674 140.85830223 -220.83746166 151.37302075 -237.85840321 163.13142776 C-238.539995 163.60048538 -239.2215868 164.069543 -239.92383289 164.55281448 C-249.8515021 171.40548191 -259.47263872 178.55503829 -268.85840321 186.13142776 C-270.23705555 187.2355098 -270.23705555 187.2355098 -271.64355946 188.36189651 C-291.88864371 204.73089689 -312.24472683 222.28773396 -329.15918446 242.15095901 C-331.13870753 244.45812728 -333.18482441 246.69789559 -335.23340321 248.94392776 C-339.96358674 254.19347267 -344.44297848 259.61578995 -348.85840321 265.13142776 C-349.27315907 265.64656937 -349.68791492 266.16171097 -350.11523914 266.69246292 C-388.21100582 314.09001762 -417.1147716 367.68763104 -436.85840321 425.13142776 C-437.16342762 426.00847366 -437.46845203 426.88551956 -437.78271961 427.78914261 C-446.40733748 452.79813203 -452.84918991 478.8963808 -456.43018055 505.10213089 C-456.88247099 508.30168604 -457.39027419 511.48890306 -457.90918446 514.67830276 C-462.1003929 540.74207386 -463.16564884 566.70023586 -463.12153968 593.06012562 C-463.1172884 596.96029321 -463.12481607 600.86044368 -463.13069218 604.76060677 C-463.1393742 611.56603789 -463.14079519 618.3714389 -463.13718891 625.17687416 C-463.13184006 635.29790759 -463.13801886 645.41891231 -463.14627184 655.53994263 C-463.16144899 674.67585494 -463.16322339 693.81175393 -463.16074882 712.947671 C-463.1589105 727.73359528 -463.16068703 742.51951525 -463.16497326 757.305439 C-463.16557568 759.43570526 -463.16617688 761.56597153 -463.16677686 763.6962378 C-463.16768419 766.90703132 -463.16859287 770.11782484 -463.16950921 773.32861836 C-463.17792937 803.1513161 -463.18228095 832.97401221 -463.17810249 862.79671097 C-463.17794612 863.91914276 -463.17778974 865.04157454 -463.17762863 866.19801942 C-463.17682294 871.88590982 -463.17597717 877.57380022 -463.17511532 883.26169062 C-463.17494424 884.39116084 -463.17477315 885.52063107 -463.17459688 886.68432766 C-463.17425022 888.96838683 -463.17390169 891.252446 -463.17355129 893.53650516 C-463.16819642 929.06115716 -463.17612172 964.58578431 -463.19458485 1000.11043167 C-463.21534348 1040.09789122 -463.22602018 1080.0853354 -463.22200936 1120.07280064 C-463.22161407 1124.34416389 -463.22125251 1128.61552715 -463.22091198 1132.88689041 C-463.22082125 1133.93847129 -463.22073052 1134.99005217 -463.22063704 1136.07349914 C-463.21947556 1151.88436996 -463.22608497 1167.69522515 -463.2367239 1183.50609207 C-463.24882537 1201.50795193 -463.25027829 1219.50977757 -463.23793373 1237.51163799 C-463.23134983 1247.56004002 -463.2328317 1257.60835998 -463.24652225 1267.65675528 C-463.25485921 1274.39969701 -463.25195148 1281.14257824 -463.24054698 1287.8855152 C-463.23438044 1291.70679889 -463.23244879 1295.52792437 -463.24441031 1299.34919798 C-463.29090088 1315.33046616 -462.82139163 1331.16153054 -461.48345184 1347.09209061 C-461.3920273 1348.18688882 -461.3920273 1348.18688882 -461.2987558 1349.30380417 C-459.23550596 1373.49716215 -455.58069863 1397.52755474 -449.85840321 1421.13142776 C-449.67390614 1421.90132034 -449.48940907 1422.67121292 -449.29932117 1423.46443558 C-448.19959113 1428.03285175 -447.05568216 1432.58742417 -445.85840321 1437.13142776 C-445.6641576 1437.88859085 -445.46991199 1438.64575394 -445.26978016 1439.42586136 C-442.97385348 1448.15351094 -440.14927368 1456.69877422 -437.29590321 1465.25642776 C-437.03273304 1466.04700577 -436.76956287 1466.83758377 -436.49841785 1467.65211868 C-431.80501599 1481.70505765 -426.65530175 1495.49107344 -420.85840321 1509.13142776 C-420.51357899 1509.95191605 -420.16875477 1510.77240433 -419.81348133 1511.61775589 C-415.16938158 1522.6169395 -409.86775189 1533.19918347 -404.17920399 1543.6929512 C-402.84303488 1546.15980094 -401.5205008 1548.6336593 -400.19824696 1551.10799026 C-385.15707577 1579.05829897 -367.19348937 1606.24328247 -346.35840321 1630.23299026 C-344.0204403 1632.94356601 -341.77776458 1635.70839567 -339.54590321 1638.50642776 C-329.79581825 1650.41752632 -318.84143083 1661.24291341 -307.98340321 1672.13142776 C-307.17371082 1672.9451384 -307.17371082 1672.9451384 -306.34766102 1673.77528763 C-300.36527299 1679.7801778 -294.32939479 1685.64820871 -287.85840321 1691.13142776 C-286.77495141 1692.08032907 -285.69287109 1693.03079909 -284.61230946 1693.98299026 C-275.66961468 1701.78350203 -266.3822722 1709.05553653 -256.85840321 1716.13142776 C-256.12041492 1716.67976273 -255.38242664 1717.22809769 -254.62207508 1717.79304886 C-229.6202033 1736.28379026 -202.97966858 1752.50554992 -174.99707508 1766.08650589 C-172.74989049 1767.1844454 -170.51541696 1768.30606518 -168.28027821 1769.42830276 C-116.44249318 1795.12965061 -58.94049935 1809.94931428 -1.54590321 1815.81892776 C-0.37938221 1815.93840775 0.78713879 1816.05788773 1.9890089 1816.18098831 C21.9108506 1818.0914156 41.8139053 1818.27903959 61.81325697 1818.25989532 C65.67052208 1818.25732896 69.52778331 1818.26063012 73.38504785 1818.26313865 C80.12705451 1818.26673029 86.86905313 1818.2666532 93.61106014 1818.26409149 C103.63700191 1818.26029245 113.66293697 1818.2622513 123.6888787 1818.2652998 C141.60002873 1818.27055356 159.51117519 1818.27011394 177.42232555 1818.26722089 C193.09639838 1818.26470171 208.7704699 1818.26405032 224.44454288 1818.26524353 C225.48571619 1818.26531992 226.5268895 1818.2653963 227.59961352 1818.265475 C231.82645192 1818.26578636 236.05329033 1818.26610476 240.28012873 1818.26643476 C279.90043845 1818.26949118 319.52074589 1818.26672437 359.14105526 1818.26133787 C394.31514649 1818.2565922 429.48923411 1818.25701749 464.66332531 1818.26179886 C504.2143754 1818.26715729 543.76542349 1818.26927473 583.3164739 1818.26618659 C587.53513809 1818.26586589 591.75380228 1818.26555305 595.97246647 1818.26524353 C597.01115089 1818.26516445 598.0498353 1818.26508538 599.11999501 1818.2650039 C614.78209893 1818.26386803 630.4442014 1818.26519371 646.10630512 1818.26772308 C663.91999068 1818.27058565 681.73367211 1818.26986043 699.54735715 1818.26444234 C709.50817308 1818.26151239 719.46898007 1818.26130521 729.42979577 1818.26508851 C736.0929388 1818.26733949 742.7560747 1818.26591987 749.41921668 1818.26158375 C753.20896852 1818.2592174 756.99870269 1818.25836548 760.78845394 1818.26198973 C780.74618242 1818.27960828 800.53776673 1818.0963709 820.35863781 1815.57112503 C821.15907513 1815.46937973 821.95951244 1815.36763443 822.78420544 1815.26280594 C823.60339458 1815.15757614 824.42258373 1815.05234634 825.26659679 1814.94392776 C826.5477084 1814.78161163 826.5477084 1814.78161163 827.85470104 1814.61601639 C852.98905769 1811.41116713 877.74777286 1807.08886757 902.14159679 1800.13142776 C903.18557629 1799.8430806 904.22955578 1799.55473343 905.30517101 1799.25764847 C914.60866477 1796.66158612 923.75802499 1793.70151955 932.89159679 1790.56892776 C933.65305004 1790.30787247 934.41450329 1790.04681717 935.19903088 1789.7778511 C983.78193247 1773.04620095 1030.01741403 1748.96949279 1071.14159679 1718.13142776 C1071.75357922 1717.67252151 1072.36556164 1717.21361526 1072.99608898 1716.74080276 C1094.66203598 1700.41632192 1114.82066868 1682.51907056 1134.01659679 1663.38142776 C1134.76427822 1662.63776459 1134.76427822 1662.63776459 1135.52706432 1661.87907791 C1141.28606085 1656.14357055 1146.87604098 1650.32629906 1152.14159679 1644.13142776 C1153.09065535 1643.04811371 1154.04112335 1641.96603242 1154.99315929 1640.88533401 C1162.17767018 1632.64864984 1168.90914063 1624.12662602 1175.45751476 1615.37752151 C1177.15672889 1613.11124578 1178.86958147 1610.85572342 1180.58300304 1608.60017776 C1216.98506247 1560.33952394 1243.32556691 1504.84446342 1260.30712414 1446.97322464 C1261.03762999 1444.48548675 1261.78453432 1442.00347004 1262.53612804 1439.52205276 C1266.66258498 1425.61205433 1269.37910764 1411.36231231 1272.14159679 1397.13142776 C1272.33640636 1396.15560745 1272.53121593 1395.17978714 1272.73192883 1394.17439651 C1281.24530967 1351.01317649 1280.72561189 1307.14392526 1280.6401549 1263.36840366 C1280.62294123 1254.11239551 1280.62971656 1244.85643741 1280.63683579 1235.60042146 C1280.64929147 1218.52193514 1280.64315237 1201.44350452 1280.62564754 1184.36502457 C1280.60833535 1167.46982684 1280.59860919 1150.57465417 1280.59898281 1133.67944717 C1280.5989981 1132.62299337 1280.59901339 1131.56653956 1280.59902915 1130.478072 C1280.59911098 1126.18843347 1280.59924223 1121.89879496 1280.59944077 1117.60915644 C1280.60124714 1077.48812534 1280.58144883 1037.36713221 1280.55058144 997.24611428 C1280.5233081 961.66539945 1280.51086051 926.08471155 1280.51220226 890.50398636 C1280.51228309 888.21665039 1280.51236381 885.92931441 1280.51244442 883.64197844 C1280.51248512 882.51111276 1280.51252582 881.38024707 1280.51256776 880.21511273 C1280.51276938 874.52147423 1280.51295054 868.82783574 1280.51310825 863.13419724 C1280.51315839 861.44897351 1280.51315839 861.44897351 1280.51320955 859.72970487 C1280.51394088 829.9102243 1280.50485264 800.09074708 1280.49245512 770.27126932 C1280.49179431 768.67906026 1280.49179431 768.67906026 1280.49112014 767.05468537 C1280.48934391 762.78718522 1280.48756706 758.51968508 1280.48573823 754.25218495 C1280.47943829 739.45421921 1280.47640233 724.65625611 1280.47551525 709.85828912 C1280.47431781 690.7937381 1280.46626329 671.7292092 1280.44665234 652.66466761 C1280.43647673 642.60098605 1280.43158532 632.53733687 1280.4346447 622.47365043 C1280.43612583 615.73253733 1280.43021608 608.99145548 1280.41855709 602.25035241 C1280.41212875 598.42302582 1280.40859905 594.5957665 1280.41407828 590.76843685 C1280.44692561 565.26487777 1279.08970075 540.12053277 1275.32909679 514.88142776 C1275.19743114 513.98154129 1275.0657655 513.08165482 1274.93010998 512.15449905 C1272.90208874 498.33348096 1270.57861389 484.68031592 1267.14159679 471.13142776 C1266.8715382 470.03669144 1266.60147961 468.94195511 1266.32323742 467.81404495 C1250.40672501 403.67366218 1223.2917052 342.5527944 1184.14159679 289.13142776 C1183.36171398 288.06666214 1182.58183117 287.00189651 1181.77831554 285.90486526 C1179.59117954 282.96019547 1177.37618041 280.04023919 1175.14159679 277.13142776 C1174.51801281 276.31859329 1174.51801281 276.31859329 1173.88183117 275.48933792 C1164.35515899 263.10819248 1154.25941982 251.28209141 1143.61425304 239.85017776 C1141.80817325 237.86434595 1140.12390314 235.87813562 1138.45019054 233.78767776 C1137.68835461 232.91111526 1136.92651867 232.03455276 1136.14159679 231.13142776 C1135.48159679 231.13142776 1134.82159679 231.13142776 1134.14159679 231.13142776 C1133.88636242 230.55006058 1133.63112804 229.96869339 1133.36815929 229.36970901 C1130.03552362 223.28817958 1123.73677518 218.70859958 1118.52831554 214.23689651 C1116.02168808 212.02564905 1113.58441349 209.75206214 1111.14818859 207.4639473 C1104.68735351 201.39938139 1098.0797882 195.65001632 1091.14159679 190.13142776 C1090.01305137 189.21200899 1088.88550141 188.29136741 1087.75878429 187.36970901 C1032.89649118 142.68080134 967.0227405 109.16793827 898.42089367 91.71150589 C895.76710524 91.03612014 893.11884762 90.34049524 890.46972179 89.64705276 C848.3698816 78.75094182 805.50467162 74.62100981 762.10121393 74.7460251 C758.17985823 74.75383921 754.25853336 74.74377742 750.33718246 74.7362951 C743.50691989 74.72560012 736.6767288 74.7257006 729.8464632 74.73343658 C719.68859244 74.74490945 709.53078061 74.73891871 699.37291008 74.72981166 C681.21771973 74.7141074 663.06256127 74.71534629 644.90736796 74.7240484 C629.01783462 74.73162617 613.1283129 74.73355077 597.23877811 74.72998047 C596.18052168 74.72975131 595.12226525 74.72952216 594.03194044 74.72928606 C589.73500118 74.72835188 585.43806193 74.72739667 581.14112269 74.72640677 C540.9167693 74.71725092 500.69243609 74.72551635 460.46808582 74.74169746 C424.8145676 74.75593087 389.16108153 74.7546588 353.50756359 74.74031448 C313.3533979 74.72421304 273.19925002 74.71790155 233.04508156 74.72715127 C228.75613145 74.72811327 224.46718135 74.7290518 220.17823124 74.72998047 C218.59442016 74.73033632 218.59442016 74.73033632 216.97861289 74.73069935 C201.10871172 74.73409641 185.23882351 74.73014976 169.36892414 74.72254181 C151.30397014 74.71392419 133.23905271 74.71619274 115.17410321 74.73238404 C105.9725134 74.74036162 96.77098326 74.74374724 87.56939411 74.73343658 C33.50199705 74.67676668 -18.70354112 76.07999021 -71.47217274 89.28474808 Z " fill="#FEFEFE" transform="translate(538.8584032058716,0.8685722351074219)"/>
<path d="M0 0 C3.59328612 0.39440224 7.18776924 0.73781225 10.78759766 1.06640625 C28.31555897 2.73423059 45.51574265 5.82775793 62.73681641 9.41015625 C64.59862549 9.7966333 64.59862549 9.7966333 66.49804688 10.19091797 C130.18508931 23.68027558 193.36463954 48.16459456 248.73681641 82.41015625 C249.49365723 82.87631348 250.25049805 83.3424707 251.03027344 83.82275391 C262.15739027 90.69931664 273.05172902 97.86609192 283.73681641 105.41015625 C284.45724121 105.91659668 285.17766602 106.42303711 285.91992188 106.94482422 C296.26644632 114.23834948 306.23924929 121.87291035 315.97949219 129.95703125 C318.50615008 132.04631546 321.06149548 134.09986893 323.61181641 136.16015625 C327.90783125 139.67683407 332.05745578 143.32849907 336.15478516 147.07421875 C338.25614131 148.97529436 340.37866279 150.841557 342.51806641 152.69921875 C346.78600143 156.42485263 350.92673377 160.2750406 355.04931641 164.16015625 C355.75121094 164.81886719 356.45310547 165.47757813 357.17626953 166.15625 C360.90709109 169.66300888 360.90709109 169.66300888 362.73681641 171.41015625 C363.58796021 172.13187012 363.58796021 172.13187012 364.45629883 172.86816406 C365.73681641 174.41015625 365.73681641 174.41015625 365.73681641 178.41015625 C365.03935303 178.79647217 364.34188965 179.18278809 363.62329102 179.58081055 C350.54776078 186.82621399 337.48795289 194.09563087 324.48510742 201.47094727 C315.55645689 206.5282606 306.58519076 211.5078321 297.60595703 216.47460938 C296.5225 217.07466797 295.43904297 217.67472656 294.32275391 218.29296875 C293.3641748 218.82293457 292.4055957 219.35290039 291.41796875 219.89892578 C289.59280145 220.92768062 287.79131775 221.99935549 286.01318359 223.10742188 C283.73681641 224.41015625 283.73681641 224.41015625 281.72900391 224.37109375 C278.94693222 223.02915329 277.08560913 221.17783799 274.86181641 219.03515625 C269.02582497 213.54386489 262.82408579 208.62985962 256.47460938 203.74951172 C254.82710755 202.47974563 253.18887607 201.19903671 251.55322266 199.9140625 C229.72477235 182.88187593 206.46658439 168.12695413 182.22265625 154.78222656 C180.13159242 153.62805462 178.05140289 152.45772873 175.97509766 151.27734375 C149.40587273 136.52694942 119.32432606 123.8206229 89.93701172 116.01708984 C87.35286376 115.30424122 84.79254281 114.52590295 82.22900391 113.7421875 C68.19238051 109.4733175 54.14438316 106.15413881 39.73681641 103.41015625 C38.60179687 103.19085449 37.46677734 102.97155273 36.29736328 102.74560547 C5.17148454 96.74765721 -25.30679614 94.05109099 -56.9934082 94.14941406 C-60.71427822 94.16083935 -64.43486311 94.15399995 -68.15572357 94.14254189 C-84.6157381 94.09941905 -100.90056906 94.43429336 -117.26318359 96.41015625 C-117.99874481 96.49458984 -118.73430603 96.57902344 -119.49215698 96.66601562 C-124.30133637 97.21942565 -129.09614589 97.84959825 -133.88818359 98.53515625 C-134.97373032 98.68939056 -134.97373032 98.68939056 -136.08120728 98.84674072 C-161.87301964 102.56388313 -187.46783194 108.3888399 -212.26318359 116.41015625 C-213.36049805 116.76271484 -214.4578125 117.11527344 -215.58837891 117.47851562 C-275.98290726 137.08690957 -333.67759614 167.27679424 -382.26318359 208.41015625 C-383.30569497 209.2791948 -384.34868888 210.14765473 -385.39208984 211.015625 C-391.89776895 216.44878015 -398.22457965 222.04128853 -404.43896484 227.8046875 C-406.97674453 230.14590334 -409.54956721 232.43808616 -412.13818359 234.72265625 C-420.75666082 242.4639702 -429.1553843 250.66209674 -436.64208984 259.51171875 C-438.54412009 261.73915658 -440.52926079 263.88038596 -442.51318359 266.03515625 C-447.0580164 271.0721537 -451.22419551 276.35178019 -455.37646484 281.7109375 C-457.30168871 284.19278934 -459.25654241 286.64555021 -461.24365234 289.078125 C-468.42292814 297.87541322 -474.99114766 306.94652735 -481.26318359 316.41015625 C-481.70484863 317.07208984 -482.14651367 317.73402344 -482.6015625 318.41601562 C-505.44696906 352.74668134 -527.0906427 390.90023124 -539.05224609 430.62109375 C-539.99689506 433.57693085 -541.03193018 436.3633053 -542.20849609 439.2265625 C-554.98123145 470.67264356 -560.80226869 505.91581946 -565.26318359 539.41015625 C-565.35513 540.08381226 -565.44707642 540.75746826 -565.54180908 541.45153809 C-573.90944303 603.05845996 -568.44514211 667.30038858 -553.26318359 727.41015625 C-553.0751416 728.16506348 -552.88709961 728.9199707 -552.69335938 729.69775391 C-543.66580992 765.73166257 -529.80967247 800.22412844 -513.26318359 833.41015625 C-512.80830566 834.32394043 -512.35342773 835.23772461 -511.88476562 836.17919922 C-498.30891692 863.24657459 -481.71772699 888.44183188 -463.26318359 912.41015625 C-462.80202148 913.01166504 -462.34085938 913.61317383 -461.86572266 914.23291016 C-455.86570702 922.04059552 -449.6319215 929.61592879 -443.18505859 937.05859375 C-442.72252686 937.61232666 -442.25999512 938.16605957 -441.78344727 938.73657227 C-440.28392482 940.46956727 -440.28392482 940.46956727 -438.39331055 941.94116211 C-433.56172585 946.26565613 -432.57979759 950.49090488 -432.21240234 956.8046875 C-432.06672178 960.27711213 -432.006276 963.74780253 -431.95068359 967.22265625 C-431.89553985 969.10898821 -431.83695007 970.99522216 -431.77514648 972.88134766 C-431.64676658 976.91916994 -431.53600976 980.95695912 -431.43701172 984.99560547 C-431.18108024 994.9967235 -430.74364318 1004.99116306 -430.33389282 1014.98690796 C-430.16288891 1019.22094925 -430.00283413 1023.4553698 -429.84272766 1027.68983459 C-429.39110621 1039.60051664 -428.85367879 1051.50558683 -428.26318359 1063.41015625 C-429.91318359 1064.07015625 -431.56318359 1064.73015625 -433.26318359 1065.41015625 C-433.85744141 1064.86488281 -434.45169922 1064.31960938 -435.06396484 1063.7578125 C-439.47528019 1059.7444074 -443.92486062 1055.83199352 -448.57568359 1052.09765625 C-454.50003607 1047.29818083 -460.05333542 1042.1542394 -465.61474609 1036.9453125 C-467.21669985 1035.45344562 -468.8307503 1033.97621016 -470.45068359 1032.50390625 C-480.91230036 1022.98094681 -491.40070497 1013.24051554 -500.53662109 1002.41796875 C-502.37461813 1000.28056949 -504.28100563 998.21357453 -506.19921875 996.14819336 C-510.93240084 991.048017 -515.47447104 985.850385 -519.83740234 980.42578125 C-521.61678224 978.21373409 -523.40948912 976.01808786 -525.22021484 973.83203125 C-550.79987322 942.85829041 -572.64665466 908.97342345 -591.26318359 873.41015625 C-591.63749512 872.69617676 -592.01180664 871.98219727 -592.39746094 871.24658203 C-594.77571308 866.67658461 -597.03770485 862.05619825 -599.26318359 857.41015625 C-599.73723633 856.4262793 -600.21128906 855.44240234 -600.69970703 854.42871094 C-615.68547334 823.19376295 -627.65566428 790.69915547 -637.26318359 757.41015625 C-637.52236572 756.52021973 -637.78154785 755.6302832 -638.04858398 754.71337891 C-643.20975299 736.77485403 -646.95489419 718.76336926 -650.26318359 700.41015625 C-650.51796208 699.03859082 -650.77309805 697.66709176 -651.02856445 696.2956543 C-652.86073254 686.3485117 -654.24075899 676.40249394 -655.32568359 666.34765625 C-655.40967407 665.5770285 -655.49366455 664.80640076 -655.5802002 664.01242065 C-659.86514264 624.38480693 -660.32309081 585.12786296 -657.26318359 545.41015625 C-657.19373535 544.44335938 -657.12428711 543.4765625 -657.05273438 542.48046875 C-655.31938999 518.6988073 -651.52546497 494.66176352 -646.26318359 471.41015625 C-646.11109436 470.73690308 -645.95900513 470.0636499 -645.80230713 469.36999512 C-644.69037668 464.45831384 -643.56157271 459.55074637 -642.41906738 454.64608765 C-642.03030247 452.97644192 -641.64327471 451.30639053 -641.25817871 449.63589478 C-639.08224901 440.23052781 -636.62780885 431.0954652 -633.46289062 421.96899414 C-632.27571745 418.44733697 -631.24407669 414.91293187 -630.25146484 411.33203125 C-628.28343341 404.3245424 -625.9558835 397.49251963 -623.45068359 390.66015625 C-623.21975006 390.03030823 -622.98881653 389.40046021 -622.75088501 388.75152588 C-609.87776038 353.83380545 -593.47048607 320.25751574 -574.26318359 288.41015625 C-573.30686366 286.80243459 -572.3511029 285.19438014 -571.39599609 283.5859375 C-557.62826195 260.55649783 -541.7983175 238.79544447 -524.69140625 218.14257812 C-522.65055869 215.66704748 -520.64891224 213.1601741 -518.63818359 210.66015625 C-514.61584109 205.7431383 -510.36479288 201.07629835 -506.03662109 196.4296875 C-503.98555925 194.22139825 -502.00606199 191.96188284 -500.03881836 189.67871094 C-496.53013878 185.66324054 -492.85533574 181.8571058 -489.07958984 178.09375 C-488.42039047 177.4335939 -487.7611911 176.77343781 -487.08201599 176.09327698 C-485.69921525 174.70980119 -484.31517284 173.32756542 -482.92993164 171.9465332 C-480.83088017 169.85283956 -478.73722419 167.75385751 -476.64404297 165.65429688 C-475.28954574 164.30046054 -473.93473828 162.9469345 -472.57958984 161.59375 C-471.96475235 160.97688828 -471.34991486 160.36002655 -470.71644592 159.72447205 C-466.393024 155.42386079 -461.88865388 151.38246877 -457.26318359 147.41015625 C-456.16906706 146.46005734 -455.07525134 145.50961175 -453.98193359 144.55859375 C-434.32481099 127.5815749 -413.8665581 111.84270768 -392.26318359 97.41015625 C-391.27898437 96.75200928 -391.27898437 96.75200928 -390.27490234 96.08056641 C-316.33323322 46.88782003 -231.04408104 14.14143343 0 0 Z " fill="#053345" transform="translate(1008.26318359375,365.58984375)"/>
<path d="M0 0 C3.48169776 0.44984153 5.55912466 1.74973586 8.53442383 3.60986328 C9.089048 3.95187775 9.64367218 4.29389221 10.21510315 4.64627075 C12.02705617 5.76625554 13.82926881 6.90101534 15.63208008 8.03564453 C16.89428777 8.81845131 18.15731809 9.59993315 19.42114258 10.38012695 C21.3405885 11.56505682 23.25961907 12.75058209 25.17623901 13.94007874 C30.80107061 17.42934224 36.48580358 20.81057474 42.19458008 24.16064453 C43.06671143 24.67715576 43.93884277 25.19366699 44.83740234 25.72583008 C49.36776362 28.40784117 53.91779189 31.04729084 58.49926758 33.64111328 C60.3560486 34.71010601 62.21281979 35.77911579 64.06958008 36.84814453 C64.93905273 37.32872314 65.80852539 37.80930176 66.7043457 38.30444336 C67.49260742 38.76230225 68.28086914 39.22016113 69.09301758 39.69189453 C69.79088379 40.08570313 70.48875 40.47951172 71.20776367 40.88525391 C72.69458008 42.34814453 72.69458008 42.34814453 73.21655273 44.68457031 C72.47812938 48.45267079 70.67487294 49.95058048 67.94458008 52.62158203 C67.20727661 53.3518309 67.20727661 53.3518309 66.45507812 54.09683228 C64.87959574 55.6510067 63.28739042 57.18675527 61.69458008 58.72314453 C60.65312478 59.74807908 59.61274828 60.77411104 58.57348633 61.80126953 C53.11035956 67.17612238 47.52361277 72.37056133 41.69458008 77.34814453 C40.50305627 78.39340344 39.31293927 79.44026831 38.12426758 80.48876953 C30.44401489 87.22155579 22.62937944 93.70937778 14.53100586 99.93261719 C12.62875321 101.39888426 10.73755818 102.87865362 8.84692383 104.35986328 C-39.60241168 142.11442179 -93.97036662 171.00389625 -151.47436523 192.27172852 C-153.73260406 193.13035002 -155.94269746 194.03131171 -158.14916992 195.01220703 C-161.71514289 196.52156688 -165.33425117 197.61857604 -169.05541992 198.66064453 C-174.42327262 200.1950729 -179.75426542 201.7997324 -185.06079102 203.53466797 C-214.48155322 213.1112039 -244.90883158 218.45341111 -275.47436523 222.80273438 C-277.90207681 223.14835684 -280.32868746 223.50188099 -282.75366211 223.86621094 C-305.71861656 227.17406623 -328.63224605 227.64790501 -351.78375244 227.54376221 C-354.81878327 227.5329167 -357.85376999 227.53334551 -360.88881683 227.53375149 C-382.80871514 227.53316985 -404.53919505 227.22889702 -426.30541992 224.41064453 C-427.68945022 224.2387406 -429.07356532 224.06751812 -430.45776367 223.89697266 C-433.13629445 223.56485101 -435.81011334 223.2138361 -438.48510742 222.85253906 C-441.02765509 222.51684738 -443.57498884 222.21557324 -446.12573242 221.94921875 C-447.2987793 221.8114502 -448.47182617 221.67368164 -449.68041992 221.53173828 C-450.7194043 221.42273193 -451.75838867 221.31372559 -452.82885742 221.20141602 C-455.30541992 220.34814453 -455.30541992 220.34814453 -456.65698242 217.77416992 C-456.8709668 216.97358154 -457.08495117 216.17299316 -457.30541992 215.34814453 C-451.65956874 210.15822978 -446.01308186 204.97016689 -440.30541992 199.84814453 C-436.61711561 196.53812784 -432.95471517 193.20105032 -429.30541992 189.84814453 C-424.85206505 185.75648346 -420.36882138 181.69991507 -415.86791992 177.66064453 C-412.99941583 175.0719945 -410.15065342 172.46229307 -407.30541992 169.84814453 C-398.22728601 161.50732099 -398.22728601 161.50732099 -393.95483398 157.81884766 C-391.2446315 155.40592188 -391.2446315 155.40592188 -389.02709961 152.53759766 C-384.61022613 147.4998921 -380.98417732 144.26565179 -374.1628418 143.41259766 C-369.05929197 143.08065635 -363.96904024 143.12993265 -358.85855103 143.26300049 C-354.37802503 143.37849397 -349.9001896 143.37331423 -345.41841125 143.3722229 C-343.18019524 143.37179687 -340.94197096 143.37695282 -338.70378113 143.38778687 C-324.78115815 143.43105569 -311.12090437 142.00893347 -297.30541992 140.34814453 C-295.24817377 140.11856964 -293.19088396 139.88938552 -291.13354492 139.66064453 C-278.06485195 138.14227206 -265.22773405 135.72741449 -252.36352539 132.9921875 C-249.42213358 132.37272466 -246.4764422 131.78103808 -243.52807617 131.19580078 C-228.80115803 128.2156701 -214.57313719 124.03734262 -200.30541992 119.34814453 C-199.21793457 118.99204102 -198.13044922 118.6359375 -197.01000977 118.26904297 C-181.11666308 113.02242043 -165.66097664 106.99639946 -150.30541992 100.34814453 C-148.69481523 99.66177671 -147.08414226 98.97556909 -145.47338867 98.28955078 C-102.95688963 79.9911371 -63.48469104 54.00084773 -28.39135742 23.96142578 C-25.55964195 21.54520501 -22.65666257 19.22744563 -19.74291992 16.91064453 C-14.91209707 13.02052364 -10.61609427 8.74356653 -6.45166016 4.15698242 C-2.93772231 0.44362936 -2.93772231 0.44362936 0 0 Z " fill="#053345" transform="translate(1304.305419921875,1332.65185546875)"/>
<path d="M0 0 C8.45809253 7.33034686 14.74334238 15.56683435 19.140625 25.859375 C19.46160156 26.56964844 19.78257812 27.27992188 20.11328125 28.01171875 C25.08321317 41.16470137 23.12013518 58.21433163 17.88671875 70.8984375 C10.38543417 87.04561684 -1.2918216 97.52820281 -17.859375 103.859375 C-31.8002922 108.72035271 -46.10244071 108.10503738 -59.859375 102.859375 C-75.81157647 94.92803353 -87.93670691 82.8414328 -93.859375 65.859375 C-98.73750997 49.68729712 -97.08960948 32.75058396 -89.3203125 17.921875 C-83.15035868 7.39493957 -74.70660213 -0.61271117 -63.859375 -6.140625 C-63.09625 -6.52992188 -62.333125 -6.91921875 -61.546875 -7.3203125 C-41.66031377 -16.7802392 -17.42963116 -13.0484124 0 0 Z " fill="#FDFEFE" transform="translate(984.859375,900.140625)"/>
<path d="M0 0 C12.15193428 9.55251409 19.8831017 22.62459477 23.22558594 37.72753906 C24.43455024 57.01151062 20.68431232 74.04778814 7.86621094 89.05175781 C-0.22620587 97.2519139 -9.82686672 102.31270778 -20.77441406 105.72753906 C-21.54140625 105.97246094 -22.30839844 106.21738281 -23.09863281 106.46972656 C-37.21885952 110.28036076 -52.43771524 107.50438669 -65.08691406 100.54003906 C-81.39282927 90.2392593 -91.04451924 75.89041662 -95.33691406 57.29003906 C-98.11351552 41.02708768 -93.10957383 25.75731248 -84.18457031 12.33691406 C-75.01109181 -0.35486325 -61.61849413 -7.96386167 -46.35644531 -10.80761719 C-29.34982465 -13.01458323 -13.99561072 -10.03647813 0 0 Z " fill="#FDFEFE" transform="translate(845.7744140625,899.2724609375)"/>
<path d="M0 0 C4.56813312 3.19133875 8.58557458 6.83778434 12.52734375 10.765625 C13.37425781 11.57773437 13.37425781 11.57773437 14.23828125 12.40625 C25.80967584 24.52866338 28.11608698 40.08875454 27.83984375 56.0703125 C27.57290619 62.86609785 26.34066189 68.52357537 23.52734375 74.765625 C23.11484375 75.70148438 22.70234375 76.63734375 22.27734375 77.6015625 C16.5645539 89.18943736 7.83117741 97.68505155 -3.47265625 103.765625 C-4.8184375 104.49072266 -4.8184375 104.49072266 -6.19140625 105.23046875 C-20.40564578 112.27632024 -36.48233672 112.49773858 -51.47265625 107.765625 C-67.9827618 101.05944115 -80.10786893 89.4600189 -87.14453125 73.046875 C-92.61534329 58.7850592 -92.61068633 42.3387922 -87.08203125 28.12890625 C-78.87914143 10.98645931 -65.96069019 -0.38499806 -48.16015625 -6.734375 C-32.25436388 -11.05827972 -14.13612504 -8.41790303 0 0 Z " fill="#FDFEFE" transform="translate(1117.47265625,896.234375)"/>
</svg>
