<?xml version="1.0" encoding="UTF-8"?>
<svg version="1.1" xmlns="http://www.w3.org/2000/svg" width="1198" height="1122">
<path d="M0 0 C1.02128361 -0.00205263 2.04256723 -0.00410527 3.09479883 -0.0062201 C6.51499081 -0.01187188 9.93514229 -0.01043509 13.3553381 -0.00901413 C15.83325606 -0.01159883 18.3111736 -0.01461228 20.78909057 -0.01801753 C26.88395077 -0.0252339 32.97879743 -0.02778958 39.07366058 -0.02834659 C46.37688282 -0.02926223 53.68009701 -0.03593582 60.98331578 -0.04269341 C78.63559893 -0.05873729 96.28788119 -0.0646554 113.94017032 -0.06944216 C122.29763247 -0.07178029 130.65509394 -0.07538324 139.01255556 -0.07913754 C167.6424816 -0.09197324 196.27240727 -0.10269112 224.90233612 -0.10614014 C226.69891794 -0.10636177 228.49549977 -0.10658355 230.29208159 -0.10680549 C232.09291968 -0.10702613 233.89375778 -0.10724661 235.69459587 -0.10746694 C239.30717218 -0.10790948 242.91974849 -0.1083566 246.53232479 -0.10880661 C247.42803074 -0.108916 248.32373669 -0.10902539 249.24658525 -0.1091381 C278.26528571 -0.11276568 307.28396115 -0.12867435 336.30265204 -0.15199697 C367.00955998 -0.17663111 397.71645363 -0.19031469 428.42337173 -0.19150805 C431.79890693 -0.1916795 435.17444211 -0.19189492 438.5499773 -0.19214249 C439.38108039 -0.19219826 440.21218347 -0.19225402 441.0684715 -0.19231148 C454.40542411 -0.19345898 467.74235092 -0.20445554 481.07929484 -0.21902954 C494.50430709 -0.23344522 507.9292865 -0.23660309 521.35430438 -0.22858956 C529.31444332 -0.22415668 537.27447574 -0.22789919 545.23460053 -0.24382807 C551.20242627 -0.25482704 557.17013269 -0.24986363 563.13796317 -0.2390562 C565.53447283 -0.23711169 567.93099341 -0.24011913 570.32748777 -0.24890056 C589.97289723 -0.31626347 609.370335 1.18022721 628.60483456 5.38142776 C629.58194393 5.59194778 630.55905331 5.8024678 631.56577206 6.01936722 C656.77004652 11.63896596 680.790923 20.94826062 703.54233456 33.13142776 C704.19073299 33.47496292 704.83913143 33.81849808 705.50717831 34.17244339 C721.2980631 42.59117047 735.71885051 52.79766784 749.54233456 64.13142776 C750.11161678 64.59629593 750.68089901 65.06116409 751.26743221 65.54011917 C763.69107881 75.75013604 775.49489253 86.81803138 785.44858456 99.48299026 C787.67149488 102.29480593 790.00888761 104.98421057 792.35483456 107.69392776 C798.76174809 115.38222401 804.19084914 123.68611485 809.54233456 132.13142776 C810.19202206 133.15381546 810.19202206 133.15381546 810.85483456 134.19685745 C840.12506358 180.77768286 852.70588101 233.43402187 852.68277645 287.9500618 C852.68536257 290.39202034 852.68837642 292.83397847 852.69177985 295.27593601 C852.69898212 301.27027329 852.70155107 307.26459683 852.70210891 313.25893709 C852.70302614 320.4443585 852.70970437 327.62977176 852.71645573 334.81518965 C852.73248241 352.179494 852.73841554 369.54379743 852.74320448 386.90810785 C852.74554411 395.13140181 852.74914719 403.35469508 852.75289986 411.5779885 C852.76573338 439.7566036 852.77645196 467.93521833 852.77990246 496.11383629 C852.78012409 497.88131004 852.78034587 499.6487838 852.78056781 501.41625755 C852.78078845 503.18787368 852.78100893 504.9594898 852.78122926 506.73110592 C852.7816718 510.28495669 852.78211892 513.83880746 852.78256893 517.39265823 C852.78267832 518.27380042 852.78278771 519.15494261 852.78290042 520.06278608 C852.78652817 548.61094174 852.80243859 577.15907197 852.8257593 605.7072179 C852.85040044 635.92734518 852.86407731 666.14745794 852.86527038 696.36759555 C852.86544181 699.69032026 852.86565724 703.01304495 852.86590481 706.33576965 C852.86596058 707.15385004 852.86601635 707.97193042 852.8660738 708.81480112 C852.86722061 721.93454295 852.8782111 735.05425851 852.89279186 748.1739915 C852.90721645 761.38247232 852.91036042 774.59091976 852.90235189 787.7994063 C852.89792335 795.62805546 852.90164374 803.45659625 852.91759039 811.28523098 C852.92860798 817.15858983 852.92361258 823.03186929 852.91281852 828.90523063 C852.91087745 831.2606367 852.91386508 833.61605394 852.92266288 835.97144438 C853.0328562 867.50351707 848.53777643 898.19140414 838.54233456 928.13142776 C838.2498785 929.01008499 837.95742245 929.88874222 837.65610409 930.79402542 C828.38743278 958.24676019 815.1440568 984.06208393 797.54233456 1007.13142776 C797.11243221 1007.70264359 796.68252987 1008.27385941 796.23960018 1008.8623848 C781.81590882 1027.97640791 764.70433111 1046.75373307 745.54233456 1061.13142776 C744.86090389 1061.65156448 744.17947323 1062.1717012 743.47739315 1062.70759964 C733.77306843 1070.10490516 723.9911606 1077.08200457 713.36508846 1083.0913887 C711.51704553 1084.14585734 709.69148805 1085.23283959 707.86655331 1086.32674026 C663.53903267 1112.55777115 612.67198282 1122.29365303 561.79999447 1122.27186966 C559.37850956 1122.27445629 556.95702508 1122.27747028 554.53554118 1122.28087306 C548.5956951 1122.28807034 542.65585736 1122.29064399 536.71600794 1122.29120212 C529.59494993 1122.29211992 522.47390012 1122.29879979 515.35284567 1122.30554894 C498.14505755 1122.32156963 480.93727035 1122.32750802 463.72947611 1122.33229769 C455.57936368 1122.33463787 447.42925195 1122.33824101 439.27914006 1122.34199307 C411.34788219 1122.35482593 383.41662471 1122.36554467 355.48536396 1122.36899567 C353.73367277 1122.36921729 351.98198158 1122.36943908 350.23029039 1122.36966102 C348.47451093 1122.36988165 346.71873148 1122.37010214 344.96295202 1122.37032247 C341.44091026 1122.370765 337.9188685 1122.37121212 334.39682674 1122.37166214 C333.52357241 1122.37177153 332.65031808 1122.37188092 331.7506015 1122.37199363 C303.45862761 1122.3756213 275.16667938 1122.39153176 246.87471531 1122.4148525 C216.92128218 1122.43949735 186.96786371 1122.45317069 157.01442015 1122.45436358 C153.72062055 1122.45453502 150.42682095 1122.45475044 147.13302135 1122.45499802 C146.32207065 1122.45505379 145.51111994 1122.45510955 144.67559497 1122.45516701 C131.67419428 1122.45631348 118.67282012 1122.46730102 105.67142837 1122.48188507 C92.580674 1122.49631441 79.4899533 1122.49945098 66.39919315 1122.49144509 C58.64184587 1122.48701881 50.88460799 1122.4907277 43.12727528 1122.5066836 C37.30525196 1122.51771094 31.48332405 1122.51269885 25.66130431 1122.50191173 C23.32811744 1122.49997244 20.99491927 1122.50294973 18.66174822 1122.51175609 C-2.53804272 1122.5866128 -23.80563404 1121.05262649 -44.58266544 1116.63142776 C-46.3438068 1116.25848587 -46.3438068 1116.25848587 -48.14052677 1115.8780098 C-93.33669429 1105.7619001 -135.68259234 1084.75498231 -170.45766544 1054.13142776 C-171.16922794 1053.51912308 -171.88079044 1052.90681839 -172.61391544 1052.27595901 C-174.57962856 1050.58012864 -176.52150037 1048.86092353 -178.45766544 1047.13142776 C-179.39352482 1046.29998245 -180.32938419 1045.46853714 -181.29360294 1044.61189651 C-187.7831178 1038.79406711 -193.77039352 1032.75023561 -199.45766544 1026.13142776 C-200.73383732 1024.68703323 -200.73383732 1024.68703323 -202.03579044 1023.21345901 C-234.42352413 986.20975752 -255.81007311 939.88144259 -265.27016544 891.81892776 C-265.56274235 890.33682816 -265.56274235 890.33682816 -265.8612299 888.82478714 C-269.15828497 870.98840276 -269.75005439 853.36321551 -269.71836185 835.27446365 C-269.72138795 832.80512633 -269.72527972 830.33578995 -269.72995442 827.8664552 C-269.73805688 822.52932272 -269.74005172 817.19224178 -269.73645115 811.85510826 C-269.7311108 803.917863 -269.73727272 795.98065446 -269.74553408 788.04341318 C-269.76072501 773.03754105 -269.76248419 758.03168588 -269.76001105 743.02580766 C-269.75817393 731.43227008 -269.75994678 719.83873801 -269.7642355 708.24520111 C-269.76483791 706.57585869 -269.76543911 704.90651626 -269.7660391 703.23717383 C-269.76694642 700.72120499 -269.76785509 698.20523615 -269.76877145 695.68926731 C-269.77719372 672.31502136 -269.78154173 648.94077748 -269.77736473 625.56653023 C-269.77720835 624.6864817 -269.77705198 623.80643317 -269.77689086 622.8997165 C-269.77608516 618.43992824 -269.77523939 613.98014 -269.77437756 609.52035175 C-269.77420647 608.63472528 -269.77403539 607.74909881 -269.77385911 606.83663518 C-269.77351246 605.04568559 -269.77316393 603.254736 -269.77281353 601.46378642 C-269.76745838 573.60721944 -269.77538386 545.75068414 -269.79384708 517.89412308 C-269.81459787 486.54995923 -269.82528389 455.205815 -269.8212716 423.86164391 C-269.82087629 420.51461228 -269.82051474 417.16758065 -269.82017422 413.82054901 C-269.82008349 412.99651096 -269.81999275 412.1724729 -269.81989927 411.32346399 C-269.81873695 398.92440003 -269.82535371 386.52535599 -269.83598614 374.126297 C-269.84807783 360.01168585 -269.84955166 345.89711835 -269.83719597 331.78250651 C-269.83060341 323.90029162 -269.83211435 316.01818132 -269.84578448 308.13597496 C-269.85508926 302.22480559 -269.84842446 296.31371962 -269.83593669 290.40255405 C-269.83330673 288.03055297 -269.83560191 285.65853944 -269.84367255 283.28655063 C-269.90871319 262.7232727 -268.39717315 242.31563101 -263.64516544 222.25642776 C-263.38799747 221.13840775 -263.13082951 220.02038773 -262.86586857 218.86848831 C-260.56626569 209.11405968 -257.77529689 199.58524831 -254.45766544 190.13142776 C-254.22611759 189.4617598 -253.99456974 188.79209183 -253.75600529 188.10213089 C-244.87139852 162.63167258 -232.3767855 138.90386745 -216.45766544 117.13142776 C-216.0483881 116.57052444 -215.63911076 116.00962112 -215.21743107 115.43172073 C-200.98594008 96.09545581 -184.50501585 77.80635914 -165.45766544 63.13142776 C-164.37122277 62.25736733 -163.28669294 61.38092566 -162.20375919 60.50252151 C-117.57069987 24.48673602 -57.89771689 -0.10934625 0 0 Z " fill="#053345" transform="translate(269.4576654434204,-0.13142776489257813)"/>
<path d="M0 0 C1.1674173 0.00215515 2.33483459 0.0043103 3.53762817 0.00653076 C81.51956004 0.23717751 157.59482009 24.22668065 220.25 71.3125 C221.15468018 71.9919165 221.15468018 71.9919165 222.07763672 72.68505859 C235.25730933 82.66400483 247.74888594 93.43498584 259.25 105.3125 C261.90194587 107.98183567 264.57249901 110.6301651 267.265625 113.2578125 C274.08690076 119.94171899 280.33192948 126.80344134 286.25 134.3125 C287.13267458 135.37338123 288.01823778 136.43186386 288.90625 137.48828125 C323.8703009 179.46666971 347.70576837 231.31364239 359.59765625 284.40722656 C360.18495825 287.02283052 360.79274348 289.63263967 361.40625 292.2421875 C363.43311592 301.08261378 364.83665557 309.93491798 365.9375 318.9375 C366.05697998 319.91396484 366.17645996 320.89042969 366.29956055 321.89648438 C367.8831506 335.77611801 368.42070749 349.65525104 368.38037109 363.61474609 C368.37500062 365.81224456 368.38036903 368.00953878 368.38671875 370.20703125 C368.39587122 385.34079264 367.49386679 400.29531724 365.5625 415.3125 C365.47829803 415.97004272 365.39409607 416.62758545 365.30734253 417.30505371 C363.70605517 429.61230718 361.16210959 441.57493086 357.97167969 453.56835938 C357.30417162 456.1065159 356.67868666 458.6502572 356.0703125 461.203125 C343.37501507 513.5918719 315.69983414 563.93101954 280.25 604.3125 C279.61707031 605.0446875 278.98414063 605.776875 278.33203125 606.53125 C276.65091071 608.47011671 274.95271166 610.39258594 273.25 612.3125 C272.61191406 613.04339844 271.97382812 613.77429688 271.31640625 614.52734375 C266.76491005 619.68013853 262.03686275 624.62926871 257.1875 629.5 C256.62216553 630.06992676 256.05683105 630.63985352 255.47436523 631.22705078 C228.71621242 657.88896509 196.88309419 678.4898907 163.25 695.3125 C162.43853516 695.72483887 161.62707031 696.13717773 160.79101562 696.56201172 C148.36189278 702.85704574 135.55433728 707.68001415 122.39038086 712.21484375 C120.20216613 712.9796897 118.02110205 713.76517302 115.84594727 714.56640625 C107.92420558 717.47802704 100.02242751 719.86094565 91.8125 721.8125 C90.57894775 722.10729248 89.34539551 722.40208496 88.07446289 722.70581055 C78.8298561 724.8498332 69.5536832 726.60330693 60.1875 728.125 C58.9900415 728.31964844 57.79258301 728.51429688 56.55883789 728.71484375 C52.7949975 729.29574487 49.02500982 729.81125491 45.25 730.3125 C43.96195969 730.48693162 42.67391937 730.66136324 41.34684753 730.84108067 C25.25661038 732.8171296 9.10382064 732.61972435 -7.0772512 732.61792648 C-11.41938051 732.61959501 -15.76147934 732.63269751 -20.10359192 732.64411926 C-29.55952298 732.66679933 -39.01543137 732.67486925 -48.47138596 732.67994571 C-54.38401366 732.6832183 -60.29663497 732.68974946 -66.20925903 732.6969471 C-82.61015103 732.71647958 -99.01103715 732.73290711 -115.41194153 732.73582363 C-116.45765758 732.7360112 -117.50337364 732.73619877 -118.58077806 732.73639202 C-120.70015176 732.73675825 -122.81952546 732.73712194 -124.93889916 732.73748314 C-125.99079584 732.73766595 -127.04269251 732.73784876 -128.12646484 732.73803711 C-129.70625242 732.73830793 -129.70625242 732.73830793 -131.3179549 732.73858423 C-148.41582867 732.74213249 -165.51357705 732.76921056 -182.61140728 732.806535 C-200.20413816 732.84463055 -217.79680674 732.86398113 -235.38957977 732.86428314 C-245.25231623 732.86486691 -255.11490242 732.87330919 -264.9776001 732.90228081 C-273.36541406 732.92680967 -281.75302273 732.93406633 -290.14086288 732.91903328 C-294.41595135 732.91187438 -298.69063448 732.9126785 -302.96567726 732.93544388 C-306.8849436 732.9561148 -310.80349496 732.95335898 -314.72275424 732.93256903 C-316.13420989 732.92908992 -317.545718 732.93391681 -318.95710492 732.94827347 C-332.18136918 733.074039 -342.05855428 729.83206261 -351.62646484 720.69042969 C-359.97550295 712.4266139 -363.9883521 703.39815524 -364.1875 691.625 C-364.1605321 676.10407741 -355.52027947 665.9008461 -345.00439453 655.40332031 C-343.00871092 653.42253621 -341.00775085 651.44734307 -339.00271988 649.47602081 C-336.84557486 647.35399358 -334.69588338 645.22466534 -332.54806519 643.09320068 C-326.44649818 637.04027386 -320.33346 630.99902726 -314.21191406 624.96630859 C-310.45419378 621.26210423 -306.70623494 617.54825359 -302.96413803 613.82826996 C-301.5397266 612.41627037 -300.11153188 611.00807671 -298.67950821 609.60379791 C-296.68358469 607.64624876 -294.70023485 605.67673862 -292.71923828 603.70410156 C-292.12603287 603.12841934 -291.53282745 602.55273712 -290.92164612 601.95960999 C-287.90122736 598.92455246 -285.82988381 596.71692638 -285.75 592.3125 C-287.10375744 589.92155615 -287.10375744 589.92155615 -289.203125 587.70703125 C-333.25250193 535.93657543 -356.32692566 464.92453284 -362.75 398.3125 C-362.83177994 397.57316727 -362.91355988 396.83383453 -362.99781799 396.07209778 C-363.62023373 390.30010659 -363.93429207 384.59680536 -363.98828125 378.79296875 C-363.99812042 377.90891861 -364.00795959 377.02486847 -364.01809692 376.11402893 C-364.75727675 292.05774197 -341.22971189 210.17021515 -288.75 143.3125 C-288.12222656 142.50425781 -287.49445313 141.69601562 -286.84765625 140.86328125 C-279.22721557 131.1857891 -271.33790821 121.60867666 -262.4765625 113.0390625 C-260.78658041 111.34908041 -259.26892287 109.59382616 -257.75 107.75 C-255.12034403 104.6224625 -252.24127962 102.01881308 -249.12890625 99.37890625 C-246.78465082 97.34259899 -244.52169948 95.23305606 -242.26318359 93.10253906 C-235.09729754 86.36596541 -227.61324274 80.21491889 -219.75 74.3125 C-219.0787207 73.80605957 -218.40744141 73.29961914 -217.71582031 72.77783203 C-168.46335959 35.82142444 -108.52719519 9.7796763 -47.07029724 2.58753967 C-44.92227597 2.33292097 -42.77755552 2.05917823 -40.63232422 1.78222656 C-27.09101203 0.11903642 -13.6299426 -0.04525848 0 0 Z " fill="#FEFEFE" transform="translate(558.75,194.6875)"/>
<path d="M0 0 C1.29493378 -0.00776459 1.29493378 -0.00776459 2.61602783 -0.01568604 C19.870335 -0.09710709 36.65534447 1.30462712 53.5625 4.875 C54.79154053 5.13369873 56.02058105 5.39239746 57.28686523 5.65893555 C76.54370261 9.88010587 94.69950661 16.57678122 112.375 25.25 C113.23722168 25.67152344 114.09944336 26.09304688 114.98779297 26.52734375 C135.451534 36.63733932 154.25848264 49.12377536 171.375 64.25 C167.04771287 91.11793206 154.47168664 117.57848552 132.375 134.25 C110.53218091 149.87709726 82.57918141 151.84428875 56.734375 148.08203125 C48.89259797 146.72228022 41.28510185 144.25272262 33.68212891 141.94433594 C13.30534495 135.81189429 -7.93596651 135.37931445 -28.625 140.25 C-29.62144531 140.44335938 -30.61789062 140.63671875 -31.64453125 140.8359375 C-60.39957046 146.89377066 -87.25694389 167.41857477 -103.37890625 191.61328125 C-112.43421525 205.89655839 -118.6987778 221.60216827 -121.625 238.25 C-121.80933594 239.25933594 -121.99367188 240.26867187 -122.18359375 241.30859375 C-125.34397892 269.52831624 -120.54453372 295.30159801 -108.125 320.5625 C-91.48642928 354.70843304 -84.84418674 401.63065848 -96.67651367 438.26757812 C-102.85266839 455.87863464 -112.6462397 469.63846832 -129.375 478.48828125 C-133.46278049 479.87216527 -137.3838515 481.13596126 -141.51171875 479.50415039 C-143.48202632 478.31498155 -145.29414283 477.01937375 -147.125 475.625 C-147.80860596 475.12863037 -148.49221191 474.63226074 -149.1965332 474.12084961 C-151.36401829 472.52726363 -153.49792357 470.89706602 -155.625 469.25 C-156.31255371 468.71938965 -157.00010742 468.1887793 -157.70849609 467.64208984 C-167.1161999 460.31504348 -176.00776225 452.48636536 -184.625 444.25 C-185.37265625 443.54359375 -186.1203125 442.8371875 -186.890625 442.109375 C-191.41611771 437.7264175 -195.4065015 433.00466251 -199.34375 428.08984375 C-200.82092633 426.25096157 -202.3197954 424.42921177 -203.84375 422.62890625 C-210.08759049 415.23083468 -215.465427 407.42464855 -220.625 399.25 C-221.03363281 398.60321289 -221.44226563 397.95642578 -221.86328125 397.29003906 C-242.36111852 364.47723131 -255.40165336 327.70957686 -259.625 289.25 C-259.76639404 288.03691162 -259.76639404 288.03691162 -259.91064453 286.79931641 C-267.04530104 219.03922441 -246.6209393 150.29628316 -203.9375 97.3125 C-200.34730086 93.03013635 -196.64593507 88.85391581 -192.87890625 84.7265625 C-191.3507804 83.04747795 -189.83814142 81.35419177 -188.33984375 79.6484375 C-183.72362451 74.40669284 -178.9787981 69.72384859 -173.625 65.25 C-172.71492188 64.45207031 -171.80484375 63.65414062 -170.8671875 62.83203125 C-122.96644941 21.00549476 -63.1355719 0.17228759 0 0 Z " fill="#053345" transform="translate(557.625,300.75)"/>
<path d="M0 0 C0.67417969 0.57105469 1.34835937 1.14210938 2.04296875 1.73046875 C2.70683594 2.24996094 3.37070312 2.76945313 4.0546875 3.3046875 C10.11026532 8.21815241 14.77791102 14.23554682 19.04296875 20.73046875 C19.57792969 21.50777344 20.11289062 22.28507813 20.6640625 23.0859375 C21.1308387 26.34374665 20.54437564 26.93693111 18.7109375 29.5859375 C17.57038194 31.04547908 16.40884944 32.48879152 15.23046875 33.91796875 C14.32820557 35.05190063 14.32820557 35.05190063 13.40771484 36.20874023 C8.82741618 41.9154721 4.02490536 47.37216317 -0.95703125 52.73046875 C-2.06524203 54.01866736 -3.16952481 55.31025733 -4.26953125 56.60546875 C-12.38953119 65.88814766 -21.24176887 74.14420978 -30.95703125 81.73046875 C-31.91738281 82.50777344 -32.87773438 83.28507813 -33.8671875 84.0859375 C-79.31396148 120.22502832 -133.85855951 135.31446437 -191.20703125 134.85546875 C-193.42838132 134.84540417 -195.64973587 134.83628456 -197.87109375 134.828125 C-203.2331734 134.80642093 -208.59508022 134.77322707 -213.95703125 134.73046875 C-218.46865823 123.21048919 -220.2938367 113.22524515 -220.20703125 100.85546875 C-220.21476563 99.76105469 -220.2225 98.66664063 -220.23046875 97.5390625 C-220.17203048 72.84889181 -210.19588067 51.03281837 -193.95703125 32.73046875 C-193.34988281 32.0034375 -192.74273438 31.27640625 -192.1171875 30.52734375 C-188.1061916 25.76144385 -183.77762435 21.6679616 -178.95703125 17.73046875 C-178.05597656 16.98023438 -177.15492188 16.23 -176.2265625 15.45703125 C-157.02502308 0.02765737 -133.84545854 -11.2521292 -109.95703125 -17.26953125 C-109.20566895 -17.46417969 -108.45430664 -17.65882813 -107.68017578 -17.859375 C-72.34287293 -26.63455428 -28.98923433 -23.9200786 0 0 Z " fill="#053345" transform="translate(748.95703125,685.26953125)"/>
<path d="M0 0 C6.4720201 3.64293347 10.89594514 7.70346041 13.296875 14.90625 C14.00013586 22.04261835 13.6855329 28.0418738 9.296875 33.90625 C5.02136174 38.45531506 0.77801015 41.45010126 -5.53515625 42.27734375 C-12.59801065 42.43470748 -17.42525539 41.80796854 -22.703125 36.90625 C-28.27559082 30.74849237 -30.16947246 25.85737973 -30.03515625 17.56640625 C-29.33068199 11.92232425 -26.82300586 7.67343614 -22.47265625 4.046875 C-15.45466983 -0.76153331 -8.29921442 -3.35806364 0 0 Z " fill="#083547" transform="translate(569.703125,540.09375)"/>
<path d="M0 0 C4.7601272 3.47334484 9.66147555 8.52047963 10.921875 14.40234375 C11.74867629 20.90192059 11.0260097 25.75196562 7.55859375 31.35546875 C4.41217688 35.29036718 0.41067438 38.15794406 -4.078125 40.40234375 C-11.26548078 41.11497109 -17.47979605 41.33812107 -23.4296875 36.89453125 C-28.23333546 32.54620537 -31.58644342 28.15465055 -32.44921875 21.5703125 C-32.60658248 14.5074581 -31.97984354 9.68021336 -27.078125 4.40234375 C-19.16419809 -2.75936832 -9.81822665 -5.51784338 0 0 Z " fill="#083547" transform="translate(633.078125,541.59765625)"/>
<path d="M0 0 C4.23266909 3.00591245 7.00264201 7.03262777 9.3046875 11.63671875 C9.99954685 19.0409577 9.93960589 25.56524671 5.3046875 31.63671875 C0.16917826 37.08863377 -4.8393193 39.89525865 -12.4453125 40.13671875 C-18.93467512 40.00900682 -23.05814117 38.15061149 -27.6953125 33.63671875 C-32.7348988 27.11063577 -34.5303412 21.87808899 -33.6953125 13.63671875 C-31.58301133 6.08894195 -25.83407413 1.07752689 -19.2578125 -2.80078125 C-12.00499314 -4.39286355 -6.55422992 -3.56296922 0 0 Z " fill="#083547" transform="translate(511.6953125,542.36328125)"/>
</svg>
